<svg width="20" height="20" viewBox="0 0 20 20" fill="none" xmlns="http://www.w3.org/2000/svg">
<path d="M14.9999 3.33334H4.99992C4.07944 3.33334 3.33325 4.07954 3.33325 5.00001V15C3.33325 15.9205 4.07944 16.6667 4.99992 16.6667H14.9999C15.9204 16.6667 16.6666 15.9205 16.6666 15V5.00001C16.6666 4.07954 15.9204 3.33334 14.9999 3.33334Z" stroke="#3C83F6" stroke-width="1.5" stroke-linecap="round" stroke-linejoin="round"/>
<path d="M11.6667 7.5H8.33333C7.8731 7.5 7.5 7.8731 7.5 8.33333V11.6667C7.5 12.1269 7.8731 12.5 8.33333 12.5H11.6667C12.1269 12.5 12.5 12.1269 12.5 11.6667V8.33333C12.5 7.8731 12.1269 7.5 11.6667 7.5Z" stroke="#3C83F6" stroke-width="1.5" stroke-linecap="round" stroke-linejoin="round"/>
<path d="M12.5 1.66666V3.33332" stroke="#3C83F6" stroke-width="1.5" stroke-linecap="round" stroke-linejoin="round"/>
<path d="M12.5 16.6667V18.3333" stroke="#3C83F6" stroke-width="1.5" stroke-linecap="round" stroke-linejoin="round"/>
<path d="M1.66675 12.5H3.33341" stroke="#3C83F6" stroke-width="1.5" stroke-linecap="round" stroke-linejoin="round"/>
<path d="M1.66675 7.5H3.33341" stroke="#3C83F6" stroke-width="1.5" stroke-linecap="round" stroke-linejoin="round"/>
<path d="M16.6667 12.5H18.3334" stroke="#3C83F6" stroke-width="1.5" stroke-linecap="round" stroke-linejoin="round"/>
<path d="M16.6667 7.5H18.3334" stroke="#3C83F6" stroke-width="1.5" stroke-linecap="round" stroke-linejoin="round"/>
<path d="M7.5 1.66666V3.33332" stroke="#3C83F6" stroke-width="1.5" stroke-linecap="round" stroke-linejoin="round"/>
<path d="M7.5 16.6667V18.3333" stroke="#3C83F6" stroke-width="1.5" stroke-linecap="round" stroke-linejoin="round"/>
</svg>
