<svg width="27" height="30" viewBox="0 0 27 30" fill="none" xmlns="http://www.w3.org/2000/svg">
<path d="M22.2946 8.547H4.65975C2.63853 8.547 1 10.1424 1 12.1105V25.4365C1 27.4046 2.63853 29 4.65975 29H22.2946C24.3159 29 25.9544 27.4046 25.9544 25.4365V12.1105C25.9544 10.1424 24.3159 8.547 22.2946 8.547Z" stroke="white" stroke-width="2" stroke-linecap="round" stroke-linejoin="round"/>
<path d="M16.5696 16.9282C16.5696 15.2652 15.1851 13.9116 13.4716 13.9116C11.758 13.9116 10.3735 15.2597 10.3735 16.9282C10.3735 18.2597 11.2644 19.3701 12.4899 19.7735V23.6243H14.4532V19.7735C15.6788 19.3701 16.5696 18.2597 16.5696 16.9282Z" fill="white"/>
<path d="M6.79859 8.54695C6.78724 8.39226 6.59433 5.26519 8.76181 2.9116C9.93066 1.64088 11.5137 1 13.4769 1C15.4401 1 17.0232 1.64088 18.192 2.9116C20.3595 5.26519 20.1609 8.39226 20.1553 8.54695" stroke="white" stroke-width="2" stroke-linecap="round" stroke-linejoin="round"/>
</svg>
