<svg width="14" height="14" viewBox="0 0 14 14" fill="none" xmlns="http://www.w3.org/2000/svg">
<path d="M12.8054 14H9.28033C8.75362 14 8.32513 13.5564 8.32513 13.0111V9.42973H5.67323V13.0111C5.67323 13.5564 5.24472 14 4.71803 14H1.19459C0.535882 14 0 13.4452 0 12.7633V5.80305C0 5.18989 0.285794 4.6083 0.764492 4.2473L5.90529 0.37034C6.56008 -0.123436 7.43992 -0.123457 8.09469 0.37034L13.2355 4.2473C13.7142 4.60833 14 5.18991 14 5.80305V12.7633C14 13.4452 13.4641 14 12.8054 14ZM9.55709 12.7246H12.7681V5.80305C12.7681 5.5962 12.6716 5.39997 12.5101 5.27819L7.36931 1.40121C7.14842 1.23462 6.85158 1.23462 6.63067 1.40121L1.48989 5.27817C1.32838 5.39997 1.23196 5.59618 1.23196 5.80305V12.7246H4.44127V9.14323C4.44127 8.59795 4.86977 8.15434 5.39647 8.15434H8.60189C9.12857 8.15434 9.55709 8.59795 9.55709 9.14323V12.7246Z" fill="white"/>
</svg>
