<svg width="22" height="22" viewBox="0 0 22 22" fill="none" xmlns="http://www.w3.org/2000/svg">
<g clip-path="url(#clip0_390_4340)">
<path d="M18.6678 14.7606C17.9024 14.7606 17.1282 14.5015 16.3607 13.9921C15.5314 14.2579 14.6645 14.3907 13.7823 14.3907C9.52537 14.3907 6.0625 11.2746 6.0625 7.44537C6.0625 3.61611 9.52537 0.5 13.7823 0.5C18.0392 0.5 21.5021 3.61611 21.5021 7.44537C21.5021 9.42533 20.5801 11.2835 18.9545 12.6012C19.2104 13.0508 19.5368 13.3853 19.9294 13.6023C20.086 13.6887 20.1853 13.8526 20.1875 14.032C20.1897 14.2113 20.0971 14.3797 19.9405 14.4705C19.8897 14.4993 19.4221 14.7606 18.6656 14.7606H18.6678ZM16.4401 12.9423C16.5438 12.9423 16.6452 12.9755 16.7312 13.0375C17.3576 13.4938 17.973 13.7374 18.5641 13.7618C18.2906 13.4517 18.059 13.0818 17.8738 12.6544C17.7811 12.4396 17.8495 12.1871 18.0392 12.0498C19.6096 10.9136 20.5095 9.23487 20.5095 7.44537C20.5095 4.16537 17.4922 1.49663 13.7823 1.49663C10.0724 1.49663 7.05504 4.16537 7.05504 7.44537C7.05504 10.7254 10.0724 13.3941 13.7823 13.3941C14.6403 13.3941 15.4784 13.2524 16.2747 12.9711C16.3276 12.9512 16.3849 12.9423 16.4401 12.9423Z" fill="#333333" stroke="#333333" stroke-width="0.5"/>
<path d="M8.22253 7.73755C4.23251 7.73755 0.999023 10.6233 0.999023 14.1846C0.999023 16.2066 2.0445 18.0116 3.67668 19.1943C3.42083 19.779 3.00175 20.4013 2.31139 20.7778C2.31139 20.7778 3.65904 21.5663 5.56472 20.1799C6.38743 20.47 7.28292 20.6317 8.22253 20.6317C12.2126 20.6317 15.446 17.7459 15.446 14.1846C15.446 10.6233 12.2126 7.73755 8.22253 7.73755Z" fill="#3C83F6"/>
<path d="M3.33647 21.4999C2.57993 21.4999 2.11233 21.2385 2.0616 21.2097C1.90721 21.1189 1.81236 20.9528 1.81457 20.7712C1.81677 20.5918 1.91603 20.4279 2.07263 20.3416C2.46523 20.1267 2.79388 19.7901 3.04753 19.3405C1.42417 18.0227 0.5 16.1668 0.5 14.1846C0.5 10.3554 3.96287 7.23926 8.21978 7.23926C12.4767 7.23926 15.9396 10.3554 15.9396 14.1846C15.9396 18.0139 12.4767 21.13 8.21978 21.13C7.33752 21.13 6.4707 20.9949 5.64137 20.7313C4.87381 21.2407 4.09962 21.4999 3.33426 21.4999H3.33647ZM8.22198 8.2381C4.51208 8.2381 1.49475 10.9068 1.49475 14.1868C1.49475 15.9763 2.39465 17.6551 3.96728 18.7912C4.15697 18.9286 4.22534 19.181 4.13271 19.3959C3.94743 19.8233 3.71584 20.1932 3.44234 20.5032C4.03345 20.4767 4.64883 20.2352 5.27523 19.779C5.40757 19.6838 5.57741 19.6594 5.7318 19.7126C6.52804 19.9938 7.36619 20.1356 8.22419 20.1356C11.9341 20.1356 14.9514 17.4668 14.9514 14.1868C14.9514 10.9068 11.9341 8.2381 8.22419 8.2381H8.22198Z" fill="#333333" stroke="#333333" stroke-width="0.5"/>
<path d="M8.22182 16.3275C7.94832 16.3275 7.72555 16.1038 7.72555 15.8291V15.1227C7.72555 14.848 7.94832 14.6243 8.22182 14.6243C9.21878 14.6243 10.0282 13.8115 10.0282 12.8105C10.0282 11.8094 9.21878 10.9966 8.22182 10.9966C7.22487 10.9966 6.41539 11.8094 6.41539 12.8105C6.41539 13.0851 6.19262 13.3088 5.91912 13.3088C5.64562 13.3088 5.42285 13.0851 5.42285 12.8105C5.42285 11.2602 6.67787 10 8.22182 10C9.76578 10 11.0208 11.2602 11.0208 12.8105C11.0208 14.1903 10.026 15.3419 8.71809 15.5767V15.8291C8.71809 16.1038 8.49532 16.3275 8.22182 16.3275Z" fill="#333333" stroke="#333333" stroke-width="0.5"/>
<path d="M8.75847 17.5382C8.75847 17.2414 8.51805 17 8.2225 17C7.92694 17 7.68652 17.2414 7.68652 17.5382C7.68652 17.8349 7.92694 18.0764 8.2225 18.0764C8.51805 18.0764 8.75847 17.8349 8.75847 17.5382Z" fill="#333333" stroke="#333333" stroke-width="0.5"/>
</g>
<defs>
<clipPath id="clip0_390_4340">
<rect width="22" height="22" fill="white"/>
</clipPath>
</defs>
</svg>
