<svg width="14" height="14" viewBox="0 0 14 14" fill="none" xmlns="http://www.w3.org/2000/svg">
<path d="M12.2305 4.43473V2H7.0975L5.36814 4.0625H0.5V11.2812H5.66928" stroke="#222222" stroke-linecap="round" stroke-linejoin="round"/>
<path d="M13.4941 9.45184C13.3385 10.0979 13.004 10.6891 12.526 11.1608C11.8382 11.8401 10.9236 12.2143 9.95095 12.2143C8.97831 12.2143 8.06375 11.8402 7.37588 11.1608C6.68792 10.4815 6.30908 9.57844 6.30908 8.61795C6.30908 7.65747 6.68792 6.75435 7.37578 6.07509C8.74434 4.72345 10.9405 4.67447 12.3686 5.92874L12.8403 5.67655C12.8833 5.6536 12.9349 5.6531 12.9781 5.67505C13.0216 5.697 13.0512 5.7385 13.0575 5.78648L13.2437 7.20925C13.2508 7.26322 13.227 7.31639 13.1823 7.34762C13.1567 7.36507 13.1269 7.37405 13.097 7.37405C13.074 7.37405 13.0507 7.36877 13.0295 7.35809L11.5657 6.61838C11.5169 6.59364 11.4858 6.54416 11.485 6.48999C11.4845 6.43552 11.5143 6.38534 11.5627 6.3596L11.9627 6.14582C10.7028 5.14403 8.849 5.22065 7.67986 6.37526C7.07312 6.97412 6.73903 7.7708 6.73903 8.61795C6.73903 9.46511 7.07312 10.2615 7.67986 10.8606C8.2866 11.4598 9.09307 11.7897 9.95095 11.7897C10.8088 11.7897 11.6153 11.4598 12.222 10.8606C12.6436 10.4445 12.9388 9.9234 13.0756 9.35368C13.1032 9.23955 13.2187 9.16912 13.3346 9.19606C13.4502 9.22329 13.5215 9.33762 13.4942 9.45184H13.4941Z" fill="#222222" stroke="#222222" stroke-width="0.6"/>
</svg>
