<svg width="48" height="48" viewBox="0 0 48 48" fill="none" xmlns="http://www.w3.org/2000/svg">
<rect width="48" height="48" rx="24" fill="#2A6DF4" fill-opacity="0.1"/>
<path d="M20.0936 22.0536C17.3183 22.0536 15.0605 19.7987 15.0605 17.0268C15.0605 14.2549 17.3183 12 20.0936 12C22.8689 12 25.1267 14.2549 25.1267 17.0268C25.1267 19.7987 22.8689 22.0536 20.0936 22.0536ZM20.0936 13.5597C18.1794 13.5597 16.6222 15.115 16.6222 17.0268C16.6222 18.9386 18.1794 20.4939 20.0936 20.4939C22.0078 20.4939 23.565 18.9386 23.565 17.0268C23.565 15.115 22.0078 13.5597 20.0936 13.5597Z" fill="#333333"/>
<path d="M24.0316 33.1769H16.1563C13.8651 33.1769 12 31.3141 12 29.0257V28.5199C12 24.0947 15.6052 20.494 20.036 20.494H20.1475C24.5782 20.494 28.1835 24.0947 28.1835 28.5199V29.0257C28.1835 31.3141 26.3184 33.1769 24.0272 33.1769H24.0316ZM20.0382 22.0537C16.4686 22.0537 13.5639 24.9548 13.5639 28.5199V29.0257C13.5639 30.454 14.7285 31.6171 16.1585 31.6171H24.0339C25.4639 31.6171 26.6285 30.454 26.6285 29.0257V28.5199C26.6285 24.9548 23.7238 22.0537 20.1542 22.0537H20.0427H20.0382Z" fill="#333333"/>
<path d="M26.6484 25.5609H33.0692C34.256 25.5609 35.2198 26.5235 35.2198 27.7089V32.143C35.2198 33.8409 33.8388 35.2179 32.1411 35.2179H27.5787C25.8787 35.2179 24.5 33.8386 24.5 32.143V27.7089C24.5 26.5235 25.4638 25.5609 26.6507 25.5609H26.6484Z" fill="#3C83F6"/>
<path d="M32.1387 36H27.5764C25.448 36 23.7168 34.271 23.7168 32.1453V27.7112C23.7168 26.0957 25.0308 24.7833 26.6483 24.7833H33.069C34.6865 24.7833 36.0005 26.0957 36.0005 27.7112V32.1453C36.0005 34.271 34.2693 36 32.1409 36H32.1387ZM26.6461 26.3408C25.8898 26.3408 25.2762 26.9536 25.2762 27.7089V32.143C25.2762 33.4087 26.307 34.4381 27.5741 34.4381H32.1365C33.4037 34.4381 34.4344 33.4087 34.4344 32.143V27.7089C34.4344 26.9536 33.8209 26.3408 33.0646 26.3408H26.6438H26.6461Z" fill="#333333"/>
<path d="M32.6992 26.3405C32.2686 26.3405 31.9183 25.9907 31.9183 25.5607V23.2478C31.9183 22.1136 30.9947 21.1912 29.8591 21.1912C28.7236 21.1912 27.8 22.1136 27.8 23.2478V25.5607C27.8 25.9907 27.4497 26.3405 27.0191 26.3405C26.5885 26.3405 26.2383 25.9907 26.2383 25.5607V23.2478C26.2383 21.2536 27.8624 19.6314 29.8591 19.6314C31.8559 19.6314 33.48 21.2536 33.48 23.2478V25.5607C33.48 25.9907 33.1298 26.3405 32.6992 26.3405Z" fill="#333333"/>
<path d="M29.857 31.6952C29.4264 31.6952 29.0762 31.3454 29.0762 30.9153V29.2197C29.0762 28.7896 29.4264 28.4398 29.857 28.4398C30.2876 28.4398 30.6379 28.7896 30.6379 29.2197V30.9153C30.6379 31.3454 30.2876 31.6952 29.857 31.6952Z" fill="#333333"/>
</svg>
