<svg width="22" height="22" viewBox="0 0 22 22" fill="none" xmlns="http://www.w3.org/2000/svg">
<path d="M7.05223 1.67969C6.71268 2.05833 6.21718 2.2991 5.66245 2.2991C5.10773 2.2991 4.61222 2.05833 4.27267 1.67969H2.69141V20.3205H4.27465C4.6142 19.9418 5.1097 19.701 5.66443 19.701C6.21915 19.701 6.71466 19.9418 7.0542 20.3205H19.3115V1.67969H7.05223Z" fill="white"/>
<path d="M19.3091 21H7.05177C6.85435 21 6.66484 20.9165 6.53257 20.7689C6.31147 20.5223 5.99364 20.3806 5.66199 20.3806C5.33034 20.3806 5.0125 20.5223 4.7914 20.7689C4.66111 20.9146 4.47159 21 4.27221 21H2.69094C2.30994 21 2 20.6951 2 20.3204V1.67961C2 1.30485 2.30994 1 2.69094 1H4.27221C4.46962 1 4.65914 1.0835 4.78943 1.22913C5.01053 1.47573 5.32836 1.61748 5.66199 1.61748C5.99561 1.61748 6.31147 1.47573 6.53257 1.22913C6.66286 1.0835 6.85238 1 7.05177 1H19.3091C19.6901 1 20 1.30485 20 1.67961V20.3204C20 20.6951 19.6901 21 19.3091 21ZM7.33604 19.6408H18.6181V2.35922H7.33604C6.8741 2.75534 6.28186 2.97864 5.66396 2.97864C5.04606 2.97864 4.45185 2.75534 3.99188 2.35922H3.38386V19.6408H3.99188C4.45383 19.2447 5.04804 19.0214 5.66594 19.0214C6.28383 19.0214 6.87804 19.2447 7.33801 19.6408H7.33604Z" fill="#333333"/>
<path d="M5.8091 17.6564C5.4281 17.6564 5.11816 17.3516 5.11816 16.9768V4.90691C5.11816 4.53215 5.4281 4.22729 5.8091 4.22729C6.19011 4.22729 6.50005 4.53215 6.50005 4.90691V16.9788C6.50005 17.3535 6.19011 17.6584 5.8091 17.6584V17.6564Z" fill="#333333"/>
<path d="M16.648 9.2758L14.1428 7.12241L11.6377 9.2758V1.67969H16.648V9.2758Z" fill="#3C83F6"/>
<path d="M16.6475 9.95534C16.4837 9.95534 16.3218 9.89709 16.1935 9.78835L14.1424 8.02524L12.0932 9.78835C11.8899 9.96311 11.5997 10.0058 11.3529 9.89515C11.1062 9.78447 10.9482 9.54369 10.9482 9.27573V1.67961C10.9482 1.30485 11.2582 1 11.6392 1H16.6495C17.0305 1 17.3404 1.30485 17.3404 1.67961V9.27573C17.3404 9.54175 17.1825 9.78447 16.9357 9.89515C16.8449 9.93592 16.7462 9.95534 16.6495 9.95534H16.6475ZM14.1424 6.44272C14.3042 6.44272 14.4661 6.49903 14.5964 6.60971L15.9566 7.77864V2.35922H12.3281V7.77864L13.6863 6.60971C13.8166 6.49709 13.9785 6.44272 14.1404 6.44272H14.1424Z" fill="#333333"/>
</svg>
