<svg width="12" height="12" viewBox="0 0 12 12" fill="none" xmlns="http://www.w3.org/2000/svg">
<path d="M10.5767 8.13461V9.57692C10.5773 9.71081 10.5498 9.84334 10.4962 9.96603C10.4426 10.0887 10.3639 10.1988 10.2652 10.2894C10.1666 10.3799 10.0501 10.4488 9.92324 10.4917C9.7964 10.5346 9.662 10.5505 9.52865 10.5385C8.04925 10.3777 6.62817 9.87218 5.37961 9.06249C4.21799 8.32435 3.23314 7.3395 2.495 6.17788C1.68249 4.92365 1.17685 3.49566 1.01904 2.00961C1.00702 1.87666 1.02282 1.74267 1.06543 1.61616C1.10804 1.48965 1.17652 1.3734 1.26652 1.27481C1.35652 1.17622 1.46606 1.09745 1.58817 1.04352C1.71028 0.989579 1.84228 0.961659 1.97577 0.961533H3.41808C3.6514 0.959237 3.87759 1.04186 4.0545 1.194C4.23141 1.34614 4.34696 1.55742 4.37961 1.78846C4.44049 2.25003 4.55339 2.70323 4.71615 3.13942C4.78084 3.3115 4.79484 3.49851 4.75649 3.6783C4.71815 3.85809 4.62907 4.02312 4.49981 4.15384L3.88923 4.76442C4.57363 5.96804 5.57022 6.96463 6.77384 7.64903L7.38442 7.03846C7.51514 6.90919 7.68017 6.82011 7.85996 6.78177C8.03975 6.74343 8.22677 6.75742 8.39884 6.82211C8.83503 6.98487 9.28824 7.09777 9.74981 7.15865C9.98335 7.19159 10.1966 7.30923 10.3491 7.48917C10.5016 7.66912 10.5826 7.89883 10.5767 8.13461Z" fill="white"/>
</svg>
