<svg width="16" height="16" viewBox="0 0 16 16" fill="none" xmlns="http://www.w3.org/2000/svg">
<path d="M14.6666 7.99998H13.0133C12.7219 7.99936 12.4384 8.09418 12.206 8.26996C11.9736 8.44573 11.8053 8.69278 11.7266 8.97331L10.1599 14.5466C10.1498 14.5813 10.1288 14.6117 10.0999 14.6333C10.0711 14.655 10.036 14.6666 9.99992 14.6666C9.96386 14.6666 9.92877 14.655 9.89992 14.6333C9.87107 14.6117 9.85002 14.5813 9.83992 14.5466L6.15992 1.45331C6.14982 1.41869 6.12877 1.38828 6.09992 1.36665C6.07107 1.34501 6.03598 1.33331 5.99992 1.33331C5.96386 1.33331 5.92877 1.34501 5.89992 1.36665C5.87107 1.38828 5.85002 1.41869 5.83992 1.45331L4.27325 7.02665C4.1949 7.30608 4.02751 7.55232 3.79649 7.72799C3.56548 7.90365 3.28347 7.99915 2.99325 7.99998H1.33325" stroke="#3C83F6" stroke-width="1.33333" stroke-linecap="round" stroke-linejoin="round"/>
</svg>
