<svg width="120" height="29" viewBox="0 0 120 29" fill="none" xmlns="http://www.w3.org/2000/svg">
<path d="M28.9255 14.448C28.9255 22.4271 22.4499 28.8961 14.4692 28.8961C6.48839 28.8961 0 22.4271 0 14.448C0 6.46898 6.47558 0 14.4628 0C22.4499 0 28.9191 6.46898 28.9191 14.448H28.9255Z" fill="white"/>
<path d="M14.4628 28.1667C22.0721 28.1667 28.2466 21.9984 28.2466 14.3969C28.2466 6.79535 22.0785 0.633497 14.4628 0.633497C6.84708 0.633497 0.678955 6.79535 0.678955 14.3969C0.678955 21.9984 6.84708 28.1667 14.4628 28.1667Z" fill="#007CC0"/>
<mask id="mask0_207_2221" style="mask-type:luminance" maskUnits="userSpaceOnUse" x="0" y="0" width="29" height="29">
<path d="M14.4628 28.1667C22.0721 28.1667 28.2466 21.9984 28.2466 14.3969C28.2466 6.79535 22.0785 0.633497 14.4628 0.633497C6.84708 0.633497 0.678955 6.79535 0.678955 14.3969C0.678955 21.9984 6.84708 28.1667 14.4628 28.1667Z" fill="white"/>
</mask>
<g mask="url(#mask0_207_2221)">
<path d="M14.5204 21.045C20.5796 21.045 25.7678 22.7278 27.9968 25.1273C28.7398 23.4189 29.1497 21.5313 29.1497 19.5541C29.1497 11.6519 22.5973 5.25327 14.5204 5.25327C6.44355 5.25327 -0.108887 11.6519 -0.108887 19.5541C-0.108887 21.5313 0.301041 23.4125 1.05044 25.1273C3.26661 22.7278 8.46757 21.045 14.5204 21.045Z" fill="#007CC0"/>
<path d="M14.5141 21.0579C20.5542 21.0579 25.7359 22.728 27.9521 25.1082C28.6951 23.4126 29.105 21.5378 29.105 19.5798C29.105 11.7416 22.5654 5.37496 14.5141 5.37496C6.46291 5.37496 -0.0703125 11.748 -0.0703125 19.5798C-0.0703125 21.5442 0.339615 23.4126 1.08261 25.1082C3.29237 22.728 8.48052 21.0579 14.5205 21.0579H14.5141Z" fill="#007EC2"/>
<path d="M14.5141 21.077C20.5413 21.077 25.7038 22.7342 27.92 25.0953C28.663 23.4125 29.0729 21.5569 29.0729 19.6117C29.0729 11.8374 22.5525 5.50282 14.5205 5.50282C6.48849 5.50282 -0.0383301 11.8374 -0.0383301 19.6117C-0.0383301 21.5569 0.371598 23.4125 1.11459 25.0953C3.31795 22.7342 8.49329 21.077 14.5141 21.077Z" fill="#0080C3"/>
<path d="M14.514 21.0898C20.522 21.0898 25.6781 22.7343 27.8815 25.0761C28.6245 23.4061 29.028 21.5633 29.028 19.6373C29.028 11.927 22.5268 5.62441 14.514 5.62441C6.5012 5.62441 0 11.927 0 19.6373C0 21.5697 0.409928 23.4061 1.14652 25.0761C3.34988 22.7343 8.506 21.0898 14.514 21.0898Z" fill="#0082C4"/>
<path d="M14.514 21.1026C20.5091 21.1026 25.6461 22.7343 27.8494 25.057C28.586 23.3997 28.9959 21.5761 28.9959 19.663C28.9959 12.0166 22.5075 5.73961 14.514 5.73961C6.52037 5.73961 0.0319824 12.0166 0.0319824 19.663C0.0319824 21.5761 0.44191 23.3997 1.1785 25.057C3.37545 22.7343 8.51877 21.1026 14.514 21.1026Z" fill="#0083C5"/>
<path d="M14.5077 21.1218C20.4837 21.1218 25.6142 22.7407 27.8047 25.0442C28.5413 23.3997 28.9448 21.5889 28.9448 19.695C28.9448 12.1126 22.4757 5.86759 14.5013 5.86759C6.52692 5.86759 0.0705566 12.1062 0.0705566 19.6886C0.0705566 21.5889 0.480484 23.3933 1.21067 25.0378C3.40122 22.7343 8.53172 21.1154 14.5077 21.1154V21.1218Z" fill="#0085C8"/>
<path d="M14.5077 21.1347C20.4708 21.1347 25.5821 22.7343 27.7726 25.025C28.5092 23.3934 28.9128 21.6018 28.9128 19.7206C28.9128 12.2022 22.4628 5.98918 14.5077 5.98918C6.55249 5.98918 0.102539 12.1958 0.102539 19.7206C0.102539 21.6018 0.506061 23.3934 1.24265 25.025C3.4268 22.7407 8.54449 21.1347 14.5077 21.1347Z" fill="#0088CA"/>
<path d="M14.5076 21.1475C20.4579 21.1475 25.5564 22.7343 27.7405 24.9994C28.4771 23.387 28.8742 21.6018 28.8742 19.7398C28.8742 12.2854 22.4371 6.10439 14.5076 6.10439C6.57801 6.10439 0.140869 12.2854 0.140869 19.7462C0.140869 21.6146 0.544392 23.3934 1.27458 25.0058C3.45232 22.7407 8.5572 21.1539 14.5011 21.1539L14.5076 21.1475Z" fill="#0089CB"/>
<path d="M14.5075 21.1667C20.4386 21.1667 25.5307 22.7407 27.702 24.9866C28.4322 23.387 28.8357 21.621 28.8357 19.7718C28.8357 12.3814 22.4178 6.23236 14.5075 6.23236C6.59713 6.23236 0.179199 12.375 0.179199 19.7718C0.179199 21.621 0.582722 23.387 1.31291 24.9866C3.48424 22.7407 8.57631 21.1667 14.5075 21.1667Z" fill="#008BCD"/>
<path d="M14.5012 21.1795C20.4196 21.1795 25.4924 22.7408 27.6638 24.9675C28.394 23.3806 28.7911 21.6274 28.7911 19.7974C28.7911 12.471 22.3924 6.35396 14.5012 6.35396C6.61014 6.35396 0.211426 12.471 0.211426 19.7974C0.211426 21.6338 0.614948 23.3806 1.33873 24.9675C3.50366 22.7408 8.58292 21.1795 14.5012 21.1795Z" fill="#008DD0"/>
<path d="M14.5011 21.1984C20.4003 21.1984 25.4667 22.7469 27.6252 24.9544C28.3554 23.3804 28.7525 21.6463 28.7525 19.8291C28.7525 12.5603 22.3666 6.48166 14.5011 6.48166C6.63566 6.48166 0.249756 12.5603 0.249756 19.8291C0.249756 21.6463 0.653278 23.3804 1.37706 24.9544C3.53558 22.7469 8.60203 21.1984 14.5011 21.1984Z" fill="#008FD1"/>
<path d="M14.5013 21.2115C20.3877 21.2115 25.4349 22.7472 27.5934 24.9355C28.3172 23.3743 28.7143 21.6594 28.7143 19.855C28.7143 12.6502 22.3476 6.59714 14.4949 6.59714C6.64226 6.59714 0.281982 12.6502 0.281982 19.855C0.281982 21.6594 0.6791 23.3743 1.40288 24.9355C3.5614 22.7472 8.60864 21.2115 14.4949 21.2115H14.5013Z" fill="#0090D3"/>
<path d="M14.4946 21.2243C20.3681 21.2243 25.4025 22.7472 27.5546 24.9163C28.2784 23.3679 28.6755 21.6658 28.6755 19.8806C28.6755 12.7398 22.3281 6.71873 14.4946 6.71873C6.66114 6.71873 0.320068 12.7398 0.320068 19.8806C0.320068 21.6658 0.717186 23.3679 1.44096 24.9163C3.59308 22.7472 8.62751 21.2243 14.4946 21.2243Z" fill="#0093D5"/>
<path d="M14.4947 21.2433C20.349 21.2433 25.3706 22.747 27.5163 24.8969C28.2401 23.3676 28.6372 21.672 28.6372 19.906C28.6372 12.8291 22.3026 6.84005 14.4947 6.84005C6.6869 6.84005 0.358643 12.8291 0.358643 19.906C0.358643 21.6784 0.75576 23.3676 1.47954 24.8969C3.62525 22.747 8.64687 21.2433 14.5011 21.2433H14.4947Z" fill="#0095D6"/>
<path d="M14.4947 21.2561C20.3362 21.2561 25.345 22.747 27.4843 24.8777C28.2017 23.3612 28.5988 21.6848 28.5988 19.9316C28.5988 12.9187 22.2833 6.96165 14.4947 6.96165C6.70607 6.96165 0.390625 12.9187 0.390625 19.9316C0.390625 21.6848 0.787742 23.3612 1.50512 24.8777C3.64443 22.747 8.65323 21.2561 14.4947 21.2561Z" fill="#0097D7"/>
<path d="M14.4951 21.2756C20.3173 21.2756 25.3133 22.7537 27.4462 24.8652C28.1636 23.3615 28.5607 21.7043 28.5607 19.9639C28.5607 13.015 22.2581 7.08989 14.4951 7.08989C6.73208 7.08989 0.429443 13.0086 0.429443 19.9639C0.429443 21.7043 0.826561 23.3615 1.54393 24.8652C3.67684 22.7537 8.67283 21.2756 14.4951 21.2756Z" fill="#0098D8"/>
<path d="M14.4881 21.2881C20.2976 21.2881 25.2808 22.7534 27.4073 24.8458C28.1246 23.3549 28.5154 21.7104 28.5154 19.9892C28.5154 13.1043 22.2319 7.20483 14.4881 7.20483C6.74436 7.20483 0.460938 13.1043 0.460938 19.9892C0.460938 21.7168 0.858055 23.3549 1.56902 24.8458C3.69552 22.7534 8.67871 21.2881 14.4881 21.2881Z" fill="#009BD9"/>
<path d="M14.4885 21.301C20.2788 21.301 25.2491 22.7534 27.3756 24.8266C28.093 23.3485 28.4837 21.7233 28.4837 20.0148C28.4837 13.1939 22.2195 7.32642 14.4949 7.32642C6.77037 7.32642 0.499756 13.1939 0.499756 20.0148C0.499756 21.7233 0.890468 23.3485 1.60784 24.8266C3.72794 22.7534 8.69831 21.301 14.4949 21.301H14.4885Z" fill="#009DDA"/>
<path d="M14.4882 21.3202C20.2657 21.3202 25.2232 22.7598 27.3369 24.8138C28.0479 23.3485 28.4386 21.7361 28.4386 20.0468C28.4386 13.2899 22.1936 7.45439 14.4818 7.45439C6.77008 7.45439 0.531494 13.2835 0.531494 20.0404C0.531494 21.7297 0.922206 23.3421 1.63317 24.8074C3.74686 22.7534 8.71083 21.3138 14.4818 21.3138L14.4882 21.3202Z" fill="#00A0DA"/>
<path d="M14.4822 21.333C20.2404 21.333 25.1852 22.7599 27.2989 24.7946C28.0098 23.3421 28.4006 21.7489 28.4006 20.0724C28.4006 13.3795 22.1684 7.57599 14.4822 7.57599C6.79609 7.57599 0.570312 13.3731 0.570312 20.0724C0.570312 21.7489 0.961025 23.3485 1.67199 24.7946C3.77928 22.7599 8.73044 21.333 14.4886 21.333H14.4822Z" fill="#00A2DB"/>
<path d="M14.4821 21.3458C20.2275 21.3458 25.1595 22.7599 27.2668 24.7754C27.9777 23.3421 28.362 21.7553 28.362 20.0981C28.362 13.4691 22.1491 7.69758 14.4821 7.69758C6.8152 7.69758 0.608643 13.4627 0.608643 20.0981C0.608643 21.7617 0.999355 23.3421 1.70392 24.7754C3.8112 22.7599 8.74314 21.3458 14.4821 21.3458Z" fill="#00A4DC"/>
<path d="M14.4821 21.365C20.2147 21.365 25.1274 22.7599 27.2283 24.7562C27.9392 23.3358 28.3235 21.7681 28.3235 20.1237C28.3235 13.5523 22.1234 7.81917 14.4821 7.81917C6.84078 7.81917 0.640625 13.5523 0.640625 20.1237C0.640625 21.7681 1.03134 23.3358 1.7359 24.7562C3.83678 22.7599 8.75591 21.365 14.4821 21.365Z" fill="#00A6DC"/>
<path d="M14.482 21.3778C20.1954 21.3778 25.1017 22.7599 27.1961 24.7371C27.9007 23.3294 28.285 21.7745 28.285 20.1493C28.285 13.6419 22.1041 7.93437 14.482 7.93437C6.8599 7.93437 0.678955 13.6483 0.678955 20.1493C0.678955 21.7809 1.06967 23.3294 1.76783 24.7371C3.8623 22.7599 8.76862 21.3778 14.482 21.3778Z" fill="#00A8DD"/>
<path d="M14.4758 21.397C20.1763 21.397 25.0634 22.7663 27.1515 24.7243C27.8561 23.3294 28.2404 21.7937 28.2404 20.1813C28.2404 13.7379 22.0787 8.06235 14.4758 8.06235C6.87291 8.06235 0.711182 13.7379 0.711182 20.1749C0.711182 21.7873 1.10189 23.323 1.80005 24.7179C3.88812 22.7599 8.78163 21.3906 14.4758 21.3906V21.397Z" fill="#00A9DE"/>
<path d="M14.4757 21.4098C20.157 21.4098 25.0377 22.7663 27.1194 24.7051C27.8239 23.323 28.2083 21.8002 28.2083 20.2069C28.2083 13.8275 22.0593 8.18394 14.4821 8.18394C6.90483 8.18394 0.749512 13.8275 0.749512 20.2069C0.749512 21.8066 1.13382 23.3294 1.83198 24.7051C3.91364 22.7663 8.79434 21.4098 14.4757 21.4098Z" fill="#00ABDF"/>
<path d="M14.4756 21.429C20.1442 21.429 25.0121 22.7727 27.0809 24.6923C27.7791 23.323 28.1634 21.8194 28.1634 20.2389C28.1634 13.9235 22.0337 8.31192 14.4692 8.31192C6.90479 8.31192 0.781494 13.9171 0.781494 20.2325C0.781494 21.813 1.1658 23.323 1.86396 24.6859C3.93922 22.7663 8.80711 21.4226 14.4692 21.4226L14.4756 21.429Z" fill="#00ADE0"/>
<path d="M14.4755 21.4419C20.1249 21.4419 24.9799 22.7728 27.0488 24.6731C27.7469 23.323 28.1313 21.8258 28.1313 20.2645C28.1313 14.0131 22.0208 8.43351 14.4755 8.43351C6.93031 8.43351 0.819824 14.0067 0.819824 20.2581C0.819824 21.8258 1.20413 23.3166 1.89588 24.6667C3.96474 22.7664 8.81982 21.4355 14.4691 21.4355L14.4755 21.4419Z" fill="#00AFE1"/>
<path d="M14.4693 21.4544C20.1058 21.4544 24.9481 22.7661 27.0105 24.6473C27.7087 23.31 28.0866 21.8319 28.0866 20.2835C28.0866 14.096 21.9889 8.54845 14.4693 8.54845C6.94967 8.54845 0.858398 14.096 0.858398 20.2835C0.858398 21.8319 1.24271 23.31 1.93446 24.6473C3.99691 22.7661 8.83918 21.4544 14.4757 21.4544H14.4693Z" fill="#00B1E2"/>
<path d="M14.4692 21.4739C20.0929 21.4739 24.916 22.7728 26.972 24.6348C27.6638 23.3103 28.0481 21.845 28.0481 20.3157C28.0481 14.1923 21.9696 8.67669 14.4692 8.67669C6.96884 8.67669 0.890381 14.1859 0.890381 20.3157C0.890381 21.845 1.27469 23.3103 1.96644 24.6348C4.02248 22.7728 8.85194 21.4739 14.4692 21.4739Z" fill="#0AB2E3"/>
<path d="M14.4694 21.4864C20.0739 21.4864 24.8905 22.7726 26.9401 24.6154C27.6319 23.3036 28.0098 21.8576 28.0098 20.3411C28.0098 14.2816 21.9506 8.79163 14.4694 8.79163C6.9882 8.79163 0.928955 14.2752 0.928955 20.3411C0.928955 21.8576 1.30686 23.3036 1.99861 24.6154C4.05465 22.7726 8.8649 21.4864 14.4694 21.4864Z" fill="#16B4E4"/>
<path d="M14.4627 21.4993C20.0544 21.4993 24.8518 22.7726 26.895 24.5962C27.5868 23.2973 27.9647 21.864 27.9647 20.3667C27.9647 14.3648 21.9182 8.91322 14.4627 8.91322C7.00713 8.91322 0.960693 14.3712 0.960693 20.3667C0.960693 21.864 1.3386 23.3037 2.03035 24.5962C4.07999 22.7726 8.87742 21.4993 14.4627 21.4993Z" fill="#23B6E6"/>
<path d="M14.4628 21.5185C20.0353 21.5185 24.8263 22.779 26.8631 24.5834C27.5549 23.2973 27.9264 21.8832 27.9264 20.3987C27.9264 14.4608 21.8992 9.0412 14.4628 9.0412C7.02648 9.0412 0.999268 14.4608 0.999268 20.3923C0.999268 21.8768 1.37717 23.2973 2.06252 24.577C4.10575 22.7726 8.89037 21.5121 14.4628 21.5121V21.5185Z" fill="#30B8E7"/>
<path d="M14.4629 21.5505C20.0289 21.5505 24.8072 22.8046 26.844 24.5962C27.5293 23.3165 27.9072 21.9152 27.9072 20.4371C27.9072 14.5376 21.8864 9.15002 14.4629 9.15002C7.03937 9.15002 1.01855 14.5376 1.01855 20.4371C1.01855 21.9152 1.39646 23.3229 2.0818 24.5962C4.12504 22.8046 8.90326 21.5505 14.4693 21.5505H14.4629Z" fill="#43BBE8"/>
<path d="M14.4627 21.5889C20.0224 21.5889 24.7942 22.8303 26.831 24.6155C27.5164 23.3485 27.8943 21.9472 27.8943 20.482C27.8943 14.6209 21.8863 9.26523 14.4627 9.26523C7.03919 9.26523 1.0376 14.6209 1.0376 20.482C1.0376 21.9472 1.4155 23.3485 2.10085 24.6155C4.13768 22.8303 8.90949 21.5889 14.4691 21.5889H14.4627Z" fill="#50BDEA"/>
<path d="M14.4629 21.621C20.0161 21.621 24.7815 22.8559 26.8119 24.6283C27.4973 23.3678 27.8752 21.9793 27.8752 20.5204C27.8752 14.7041 21.8736 9.37404 14.4629 9.37404C7.05213 9.37404 1.05054 14.7041 1.05054 20.5204C1.05054 21.9793 1.42844 23.3678 2.10738 24.6283C4.14421 22.8559 8.90962 21.621 14.4565 21.621H14.4629Z" fill="#5AC0EC"/>
<path d="M14.4629 21.6594C20.0098 21.6594 24.7688 22.8879 26.7928 24.6411C27.4781 23.387 27.8496 22.0113 27.8496 20.5652C27.8496 14.7873 21.8544 9.48925 14.4565 9.48925C7.05861 9.48925 1.06982 14.7809 1.06982 20.5652C1.06982 22.0113 1.44773 23.3934 2.12667 24.6411C4.15709 22.8815 8.9161 21.6594 14.4629 21.6594Z" fill="#64C3EE"/>
<path d="M14.463 21.6914C19.997 21.6914 24.756 22.9135 26.78 24.654C27.4654 23.4126 27.8369 22.0433 27.8369 20.6037C27.8369 14.8641 21.8481 9.59807 14.463 9.59807C7.0779 9.59807 1.08911 14.8641 1.08911 20.6037C1.08911 22.0433 1.46701 23.4126 2.14596 24.654C4.17638 22.9071 8.92898 21.6914 14.463 21.6914Z" fill="#6DC6EF"/>
<path d="M14.4626 21.7296C19.9902 21.7296 24.7364 22.9389 26.7604 24.6729C27.4394 23.438 27.8173 22.0815 27.8173 20.6482C27.8173 14.9471 21.8413 9.71301 14.4626 9.71301C7.08389 9.71301 1.10791 14.9471 1.10791 20.6482C1.10791 22.0751 1.48581 23.438 2.16475 24.6729C4.18877 22.9389 8.94137 21.7296 14.469 21.7296H14.4626Z" fill="#76C9F1"/>
<path d="M14.4629 21.7616C19.9841 21.7616 24.7239 22.9645 26.7479 24.6858C27.4269 23.4572 27.8048 22.1071 27.8048 20.693C27.8048 15.0303 21.8352 9.82183 14.4693 9.82183C7.10342 9.82183 1.12744 15.0303 1.12744 20.693C1.12744 22.1135 1.50534 23.4636 2.17788 24.6922C4.2019 22.9709 8.94169 21.768 14.4629 21.768V21.7616Z" fill="#7ECBF1"/>
<path d="M14.4627 21.8C19.9775 21.8 24.7109 22.9966 26.7285 24.705C27.4075 23.4893 27.7854 22.1456 27.7854 20.7379C27.7854 15.1135 21.8222 9.93704 14.4691 9.93704C7.11606 9.93704 1.14648 15.1071 1.14648 20.7315C1.14648 22.1392 1.51798 23.4829 2.19692 24.6986C4.22094 22.9902 8.95432 21.7936 14.4691 21.7936L14.4627 21.8Z" fill="#85CDF1"/>
<path d="M14.4629 21.8321C19.9713 21.8321 24.6982 23.0158 26.7094 24.7178C27.3884 23.5085 27.7599 22.1776 27.7599 20.7763C27.7599 15.1903 21.8031 10.0459 14.4565 10.0459C7.10978 10.0459 1.15942 15.1903 1.15942 20.7763C1.15942 22.1776 1.53092 23.5149 2.20986 24.7178C4.22748 23.0222 8.95445 21.8321 14.4629 21.8321Z" fill="#8CD0F1"/>
<path d="M14.4627 21.8705C19.9583 21.8705 24.6853 23.0478 26.6965 24.7371C27.3754 23.5341 27.7469 22.216 27.7469 20.8211C27.7469 15.2735 21.8029 10.1611 14.4627 10.1611C7.12242 10.1611 1.17847 15.2735 1.17847 20.8211C1.17847 22.2096 1.54996 23.5405 2.22891 24.7371C4.24652 23.0478 8.96709 21.8705 14.4627 21.8705Z" fill="#94D2F1"/>
<path d="M14.4628 21.9025C19.9519 21.9025 24.6661 23.0735 26.6773 24.7499C27.3499 23.5598 27.7278 22.2416 27.7278 20.8659C27.7278 15.3568 21.7902 10.2763 14.4628 10.2763C7.1353 10.2763 1.19775 15.3504 1.19775 20.8595C1.19775 22.2416 1.56925 23.5598 2.24179 24.7499C4.253 23.0735 8.97357 21.9025 14.4628 21.9025Z" fill="#9AD5F1"/>
<path d="M14.4628 21.9409C19.9456 21.9409 24.6534 23.1055 26.6582 24.7691C27.3307 23.5854 27.7086 22.2801 27.7086 20.9108C27.7086 15.44 21.7775 10.3915 14.4628 10.3915C7.14818 10.3915 1.21704 15.4336 1.21704 20.9044C1.21704 22.2737 1.58854 23.5854 2.26108 24.7691C4.27228 23.1055 8.98005 21.9409 14.4628 21.9409Z" fill="#9ED7F1"/>
<path d="M14.4629 21.9727C19.9393 21.9727 24.6406 23.1245 26.6454 24.7753C27.318 23.6044 27.6895 22.3055 27.6895 20.9426C27.6895 15.5101 21.7647 10.4936 14.4629 10.4936C7.16106 10.4936 1.23633 15.5165 1.23633 20.9426C1.23633 22.3055 1.60783 23.6044 2.28036 24.7753C4.29157 23.1245 8.99293 21.9727 14.4693 21.9727H14.4629Z" fill="#A5D9F1"/>
<path d="M14.4628 22.0114C19.9328 22.0114 24.6277 23.1568 26.6261 24.7948C27.2986 23.6303 27.6701 22.3377 27.6701 20.9876C27.6701 15.5936 21.7582 10.6091 14.4628 10.6091C7.16735 10.6091 1.24902 15.5936 1.24902 20.9876C1.24902 22.3377 1.62052 23.6303 2.29306 24.7948C4.29786 23.1568 8.99281 22.0114 14.4628 22.0114Z" fill="#ABDBF1"/>
<path d="M14.4629 22.0432C19.92 22.0432 24.6086 23.1821 26.607 24.8074C27.2795 23.6492 27.651 22.3695 27.651 21.0322C27.651 15.6766 21.7455 10.7241 14.4629 10.7241C7.18024 10.7241 1.26831 15.6766 1.26831 21.0322C1.26831 22.3759 1.63981 23.6556 2.30594 24.8138C4.31074 23.1821 8.99929 22.0496 14.4565 22.0496L14.4629 22.0432Z" fill="#B0DCF1"/>
<path d="M14.4627 22.0816C19.9134 22.0816 24.5956 23.2077 26.594 24.8266C27.2665 23.6748 27.638 22.4079 27.638 21.077C27.638 15.7598 21.7389 10.8393 14.4627 10.8393C7.18647 10.8393 1.28735 15.7598 1.28735 21.0706C1.28735 22.4079 1.65885 23.6748 2.32498 24.8202C4.32338 23.2013 9.01193 22.0752 14.4627 22.0752V22.0816Z" fill="#B8DFF0"/>
<path d="M14.4628 22.1136C19.9071 22.1136 24.5828 23.2334 26.5748 24.8394C27.241 23.7005 27.6125 22.44 27.6125 21.1154C27.6125 15.8366 21.7198 10.9481 14.4563 10.9481C7.19294 10.9481 1.30664 15.8366 1.30664 21.1154C1.30664 22.44 1.67814 23.7005 2.34427 24.8394C4.34267 23.2334 9.0184 22.1136 14.4628 22.1136Z" fill="#BDE1F1"/>
<path d="M14.4628 22.1521C19.9008 22.1521 24.5701 23.2654 26.5621 24.8587C27.2282 23.7261 27.5997 22.4784 27.5997 21.1667C27.5997 15.9262 21.7198 11.0633 14.4628 11.0633C7.20583 11.0633 1.32593 15.9198 1.32593 21.1603C1.32593 22.472 1.69742 23.7261 2.36356 24.8587C4.36195 23.2654 9.03129 22.1521 14.4692 22.1521H14.4628Z" fill="#C3E2F1"/>
<path d="M14.4629 22.1841C19.8944 22.1841 24.551 23.291 26.543 24.8715C27.2091 23.7453 27.5806 22.504 27.5806 21.2051C27.5806 16.003 21.7071 11.1721 14.4629 11.1721C7.21871 11.1721 1.34521 16.003 1.34521 21.1987C1.34521 22.504 1.71671 23.7453 2.37644 24.8651C4.36843 23.2846 9.03136 22.1841 14.4629 22.1777V22.1841Z" fill="#C8E4F1"/>
<path d="M14.463 22.2159C19.8881 22.2159 24.5382 23.3164 26.5238 24.8841C27.1899 23.7707 27.5614 22.5358 27.5614 21.2433C27.5614 16.0796 21.6943 11.2807 14.463 11.2807C7.23159 11.2807 1.3645 16.0796 1.3645 21.2433C1.3645 22.5422 1.736 23.7707 2.39573 24.8841C4.38772 23.3164 9.04424 22.2223 14.463 22.2159Z" fill="#CDE6F1"/>
<path d="M14.4629 22.2546C19.8752 22.2546 24.5253 23.3423 26.5109 24.8972C27.177 23.7902 27.5485 22.5681 27.5485 21.282C27.5485 16.1567 21.6878 11.3897 14.4693 11.3897C7.25069 11.3897 1.3772 16.1631 1.3772 21.2884C1.3772 22.5745 1.74229 23.7966 2.40842 24.9036C4.39401 23.3487 9.04413 22.261 14.4629 22.2546Z" fill="#D3E8F3"/>
<path d="M14.4629 22.2863C19.8688 22.2863 24.5126 23.3677 26.4917 24.9097C27.1515 23.8092 27.523 22.5998 27.523 21.3265C27.523 16.2396 21.6751 11.5047 14.4629 11.5047C7.25076 11.5047 1.39648 16.246 1.39648 21.3265C1.39648 22.6062 1.76158 23.8156 2.42771 24.9161C4.4133 23.3741 9.05701 22.2927 14.4629 22.2927V22.2863Z" fill="#D8EAF3"/>
<path d="M14.4628 22.3247C19.8623 22.3247 24.4996 23.3997 26.4788 24.929C27.1385 23.8412 27.51 22.6319 27.51 21.3714C27.51 16.3229 21.6685 11.6199 14.4628 11.6199C7.257 11.6199 1.41553 16.3229 1.41553 21.3714C1.41553 22.6383 1.78062 23.8412 2.44035 24.9354C4.41953 23.3997 9.06324 22.3311 14.4628 22.3311V22.3247Z" fill="#DDEDF5"/>
<path d="M14.4628 22.3568C19.8559 22.3568 24.4804 23.4253 26.4596 24.9418C27.1193 23.8604 27.4908 22.6639 27.4908 21.4098C27.4908 16.3997 21.6558 11.7287 14.4628 11.7287C7.26988 11.7287 1.43481 16.4061 1.43481 21.4098C1.43481 22.6703 1.79991 23.8604 2.45963 24.9418C4.43882 23.4189 9.06972 22.3568 14.4628 22.3568Z" fill="#E2EFF6"/>
<path d="M14.4627 22.3952C19.8494 22.3952 24.4675 23.451 26.4402 24.961C27.1 23.8861 27.4715 22.7023 27.4715 21.4546C27.4715 16.4829 21.6492 11.8439 14.4627 11.8439C7.27611 11.8439 1.45386 16.4893 1.45386 21.4546C1.45386 22.7023 1.81895 23.8861 2.47868 24.961C4.45786 23.451 9.08235 22.3952 14.4691 22.3952H14.4627Z" fill="#E6F1F7"/>
<path d="M14.4628 22.4272C19.8367 22.4272 24.4548 23.4766 26.4275 24.9739C27.0873 23.9117 27.4524 22.7344 27.4524 21.4994C27.4524 16.5661 21.6365 11.9591 14.4628 11.9591C7.28905 11.9591 1.4668 16.5661 1.4668 21.4994C1.4668 22.7408 1.83189 23.9117 2.49162 24.9803C4.46439 23.483 9.08248 22.4336 14.4628 22.4336V22.4272Z" fill="#EBF3F8"/>
<path d="M14.4629 22.4654C19.8303 22.4654 24.442 23.5084 26.4084 24.9928C27.0617 23.9371 27.4332 22.7725 27.4332 21.544C27.4332 16.6491 21.6238 12.0741 14.4629 12.0741C7.30193 12.0741 1.48608 16.6491 1.48608 21.5376C1.48608 22.7661 1.85118 23.9371 2.5045 24.9928C4.47727 23.5084 9.08896 22.4654 14.4564 22.4654H14.4629Z" fill="#F0F6FA"/>
<path d="M14.4629 22.5041C19.824 22.5041 24.4229 23.5343 26.3893 25.0059C27.0426 23.963 27.4141 22.7984 27.4141 21.5827C27.4141 16.7261 21.611 12.1831 14.4629 12.1831C7.31481 12.1831 1.50537 16.7325 1.50537 21.5827C1.50537 22.8048 1.87046 23.9566 2.52379 25.0059C4.49016 23.5343 9.10184 22.5041 14.4629 22.4977V22.5041Z" fill="#F4F9FB"/>
<path d="M14.4628 22.5359C19.8174 22.5359 24.4099 23.5596 26.3763 25.0249C27.0296 23.9883 27.4011 22.8366 27.4011 21.6273C27.4011 16.8091 21.6109 12.2917 14.4692 12.2917C7.32745 12.2917 1.52441 16.8091 1.52441 21.6273C1.52441 22.8366 1.88951 23.9883 2.54283 25.0249C4.5092 23.5596 9.10808 22.5423 14.4628 22.5359Z" fill="#F7FBFC"/>
<path d="M14.4628 22.5679C19.8111 22.5679 24.3972 23.5853 26.3571 25.0377C27.0105 24.0076 27.3755 22.8686 27.3755 21.6721C27.3755 16.8923 21.5917 12.4069 14.4564 12.4069C7.32112 12.4069 1.5437 16.8923 1.5437 21.6657C1.5437 22.8686 1.90879 24.0076 2.56212 25.0377C4.52849 23.5853 9.12096 22.5743 14.4692 22.5679H14.4628Z" fill="#FCFDFE"/>
<path d="M14.4627 22.6063C19.8045 22.6063 24.3842 23.6173 26.3441 25.0506C26.9975 24.0268 27.3626 22.8942 27.3626 21.7105C27.3626 16.9691 21.5851 12.5157 14.4627 12.5157C7.34016 12.5157 1.56274 16.9755 1.56274 21.7105C1.56274 22.907 1.92784 24.0332 2.57475 25.057C4.53472 23.6173 9.12719 22.6127 14.4627 22.6063Z" fill="white"/>
</g>
<path d="M14.463 17.8712C9.78727 17.8712 5.45101 18.6647 1.87695 20.002C4.02267 24.8137 8.85213 28.1666 14.4694 28.1666C20.0867 28.1666 24.9098 24.8137 27.0619 20.002C23.4814 18.6647 19.1387 17.8712 14.4694 17.8712H14.463Z" fill="#007CC0"/>
<path d="M77.7712 18.3575H80.7496C81.0058 18.383 81.23 18.4662 81.4093 18.7606C81.5503 18.9909 81.531 19.7715 81.531 19.7715V25.1336C81.5695 25.6391 81.8129 26.5157 83.6575 26.586H97.3389V24.6921H85.6752C84.9386 24.7369 84.8681 24.3785 84.8489 23.9306V19.4452C84.8489 18.9973 84.7848 18.5942 84.4069 18.3575H98.8441V16.4763H77.7776V18.3575H77.7712Z" fill="#0064A9"/>
<path d="M88.8072 14.5184C92.9577 14.5184 96.3268 12.2533 96.3268 8.9004C96.3268 5.54753 92.9577 3.28243 88.8072 3.28243C84.6567 3.28243 81.2876 5.54753 81.2876 8.9004C81.2876 12.2533 84.6567 14.5184 88.8072 14.5184ZM88.8072 5.20201C91.081 5.20201 92.9257 6.63529 92.9257 8.9004C92.9257 11.1655 91.081 12.6052 88.8072 12.6052C86.5334 12.6052 84.6887 11.1655 84.6887 8.9004C84.6887 6.63529 86.5334 5.20201 88.8072 5.20201Z" fill="#0064A9"/>
<path d="M32.8391 19.1191H41.8127V27.2069H45.2586V19.1191H54.2258V17.1611H32.8391V19.1191Z" fill="#0064A9"/>
<path d="M43.5357 15.0559C47.8976 15.0559 51.4332 12.6756 51.4332 9.15639C51.4332 5.63717 47.8976 3.25689 43.5357 3.25689C39.1738 3.25689 35.6382 5.63077 35.6382 9.15639C35.6382 12.682 39.1738 15.0559 43.5357 15.0559ZM43.5357 5.27244C45.9248 5.27244 47.8591 6.77612 47.8591 9.15639C47.8591 11.5367 45.9248 13.0467 43.5357 13.0467C41.1466 13.0467 39.2122 11.5367 39.2122 9.15639C39.2122 6.77612 41.1466 5.27244 43.5357 5.27244Z" fill="#0064A9"/>
<path d="M104.813 4.42783V5.11248H100.08V6.98727H102.334C101.149 7.85748 100.4 9.14999 100.4 10.7176C100.4 13.6546 103.02 15.6382 106.248 15.6382C109.476 15.6382 112.096 13.6546 112.096 10.7176C112.096 9.14999 111.346 7.85748 110.161 6.98727H112.256V5.11248H107.766V4.05671C107.766 3.53843 107.606 3.25689 106.888 3.25689H104.544C104.544 3.25689 104.813 3.41685 104.813 4.43423V4.42783ZM103.417 10.7176C103.417 8.83646 104.685 7.64632 106.248 7.64632C107.811 7.64632 109.079 8.83646 109.079 10.7176C109.079 12.5988 107.811 13.789 106.248 13.789C104.685 13.789 103.417 12.5988 103.417 10.7176Z" fill="#0064A9"/>
<path d="M112.698 16.3613C108.695 16.3613 105.448 18.5241 105.448 21.7234C105.448 24.9226 108.695 27.0854 112.698 27.0854C116.701 27.0854 119.949 24.929 119.949 21.7234C119.949 18.5177 116.701 16.3613 112.698 16.3613ZM112.698 25.2234C110.546 25.2234 108.81 23.8669 108.81 21.7297C108.81 19.5926 110.552 18.2297 112.698 18.2297C114.844 18.2297 116.586 19.5862 116.586 21.7297C116.586 23.8733 114.844 25.2234 112.698 25.2234Z" fill="#0064A9"/>
<path d="M117.284 5.5284V8.22861H116.029V4.41505C116.029 3.90956 115.862 3.64082 115.113 3.64082H113.031C113.031 3.64082 113.313 3.89036 113.313 5.522V15.3183H116.035V10.1674H117.284V15.3183H120V4.41505C120 3.90956 119.833 3.64082 119.084 3.64082H116.996C116.996 3.64082 117.278 3.91596 117.278 5.522L117.284 5.5284Z" fill="#0064A9"/>
<path d="M71.276 26.5734H74.4978V4.42784C74.4978 3.91596 74.1583 3.64082 73.4025 3.64082H70.9878C70.9878 3.64082 71.276 3.86477 71.276 5.554V26.5734Z" fill="#0064A9"/>
<path d="M71.2762 16.8477C71.2762 18.6201 68.5476 18.5817 68.5476 18.5817H60.6373C59.9007 18.6265 59.8238 18.2682 59.8046 17.8202V13.0533H66.6325C67.3883 13.0533 67.5612 12.7782 67.5612 12.2663V5.13183C67.5612 4.61995 67.3883 4.35121 66.6325 4.35121H56.0833V6.25159H64.1985V11.1465H56.1537C56.1537 11.1465 56.4419 11.5112 56.4419 12.503V19.0168C56.4804 19.5287 56.7238 20.4053 58.5748 20.4757H67.8302C67.8302 20.4757 71.4555 20.5844 71.4555 19.4391" fill="#0064A9"/>
</svg>
