<svg width="32" height="32" viewBox="0 0 32 32" fill="none" xmlns="http://www.w3.org/2000/svg">
<path d="M5.33349 18.6667C5.08117 18.6675 4.83379 18.5968 4.62009 18.4627C4.40639 18.3285 4.23513 18.1365 4.12622 17.9089C4.01731 17.6813 3.97521 17.4275 4.00482 17.1769C4.03443 16.9263 4.13453 16.6893 4.29349 16.4933L17.4935 2.89335C17.5925 2.77906 17.7274 2.70182 17.8761 2.67432C18.0248 2.64683 18.1785 2.6707 18.3118 2.74202C18.4451 2.81334 18.5503 2.92788 18.6099 3.06682C18.6696 3.20577 18.6803 3.36088 18.6402 3.50668L16.0802 11.5333C16.0047 11.7354 15.9793 11.9527 16.0063 12.1667C16.0332 12.3807 16.1117 12.5849 16.2349 12.7619C16.3582 12.9389 16.5225 13.0834 16.7139 13.1829C16.9052 13.2824 17.1178 13.334 17.3335 13.3333H26.6668C26.9191 13.3325 27.1665 13.4032 27.3802 13.5374C27.5939 13.6715 27.7652 13.8635 27.8741 14.0911C27.983 14.3187 28.0251 14.5726 27.9955 14.8231C27.9659 15.0737 27.8658 15.3107 27.7068 15.5067L14.5068 29.1067C14.4078 29.221 14.2729 29.2982 14.1242 29.3257C13.9755 29.3532 13.8219 29.3293 13.6885 29.258C13.5552 29.1867 13.45 29.0722 13.3904 28.9332C13.3307 28.7943 13.32 28.6392 13.3602 28.4933L15.9202 20.4667C15.9956 20.2646 16.021 20.0473 15.994 19.8333C15.9671 19.6194 15.8886 19.4151 15.7654 19.2381C15.6421 19.0611 15.4778 18.9167 15.2865 18.8171C15.0951 18.7176 14.8825 18.666 14.6668 18.6667H5.33349Z" stroke="white" stroke-width="2.66667" stroke-linecap="round" stroke-linejoin="round"/>
</svg>
