<svg width="22" height="22" viewBox="0 0 22 22" fill="none" xmlns="http://www.w3.org/2000/svg">
<path d="M18.8319 3.74634H3.16895V21.3448H18.8319V3.74634Z" fill="white"/>
<path d="M18.8315 22.0001H3.16854C2.79989 22.0001 2.5 21.7062 2.5 21.3448V3.74633C2.5 3.385 2.79989 3.09106 3.16854 3.09106H18.8315C19.2001 3.09106 19.5 3.385 19.5 3.74633V21.3448C19.5 21.7062 19.2001 22.0001 18.8315 22.0001ZM3.83708 20.6896H18.1629V4.40159H3.83708V20.6896Z" fill="#333333"/>
<path d="M13.0076 2.62294C13.0076 1.53707 12.1079 0.655273 11.0001 0.655273C9.89221 0.655273 8.99255 1.53707 8.99255 2.62294H5.84277V4.89764C5.84277 5.72327 6.52659 6.39351 7.36895 6.39351H14.6312C15.4736 6.39351 16.1574 5.72327 16.1574 4.89764V2.62294H13.0076Z" fill="#3C83F6"/>
<path d="M14.6308 7.04876H7.36855C6.15754 7.04876 5.17383 6.08459 5.17383 4.89763V2.62293C5.17383 2.26159 5.47372 1.96766 5.84237 1.96766H8.40765C8.70563 0.836865 9.75428 0 10.9997 0C12.2451 0 13.2937 0.836865 13.5917 1.96766H16.157C16.5256 1.96766 16.8255 2.26159 16.8255 2.62293V4.89763C16.8255 6.08459 15.8418 7.04876 14.6308 7.04876ZM6.51091 3.27819V4.89763C6.51091 5.36193 6.89484 5.73823 7.36855 5.73823H14.6308C15.1045 5.73823 15.4884 5.36193 15.4884 4.89763V3.27819H13.0072C12.6385 3.27819 12.3387 2.98426 12.3387 2.62293C12.3387 1.90026 11.7389 1.31053 10.9997 1.31053C10.2605 1.31053 9.66068 1.89839 9.66068 2.62293C9.66068 2.98426 9.36079 3.27819 8.99214 3.27819H6.51091Z" fill="#333333"/>
<path d="M15.0151 13.414H6.98495C6.61629 13.414 6.31641 13.1201 6.31641 12.7588C6.31641 12.3974 6.61629 12.1035 6.98495 12.1035H15.0151C15.3837 12.1035 15.6836 12.3974 15.6836 12.7588C15.6836 13.1201 15.3837 13.414 15.0151 13.414Z" fill="#333333"/>
<path d="M15.0151 11.0254H6.98495C6.61629 11.0254 6.31641 10.7314 6.31641 10.3701C6.31641 10.0088 6.61629 9.71484 6.98495 9.71484H15.0151C15.3837 9.71484 15.6836 10.0088 15.6836 10.3701C15.6836 10.7314 15.3837 11.0254 15.0151 11.0254Z" fill="#333333"/>
<path d="M11.8787 15.803H6.98495C6.61629 15.803 6.31641 15.509 6.31641 15.1477C6.31641 14.7864 6.61629 14.4924 6.98495 14.4924H11.8787C12.2473 14.4924 12.5472 14.7864 12.5472 15.1477C12.5472 15.509 12.2473 15.803 11.8787 15.803Z" fill="#333333"/>
</svg>
