<svg width="22" height="22" viewBox="0 0 22 22" fill="none" xmlns="http://www.w3.org/2000/svg">
<g clip-path="url(#clip0_390_4340)">
<path d="M6.27295 2.49683H1.74805V21.7807H20.2504V2.49683H15.7255H6.27295Z" fill="white"/>
<path d="M20.2501 22.5003H1.74987C1.33637 22.5003 1 22.1775 1 21.7807V2.49673C1 2.0999 1.33637 1.7771 1.74987 1.7771H20.2501C20.6636 1.7771 21 2.0999 21 2.49673V21.7807C21 22.1775 20.6636 22.5003 20.2501 22.5003ZM2.49973 21.061H19.5003V3.21635H2.49973V21.061Z" fill="#333333"/>
<path d="M6.27265 1.21973H15.7231V3.10926C15.7231 4.29561 14.7204 5.25991 13.4821 5.25991H8.51153C7.27533 5.25991 6.27051 4.29767 6.27051 3.10926V1.21973H6.27265Z" fill="#3C83F6"/>
<path d="M13.4839 5.97944H8.51335C6.86365 5.97944 5.52246 4.69234 5.52246 3.10916V1.21963C5.52246 0.822804 5.85883 0.5 6.27233 0.5H15.7228C16.1363 0.5 16.4726 0.822804 16.4726 1.21963V3.10916C16.4726 4.69234 15.1315 5.97944 13.4818 5.97944H13.4839ZM7.02219 1.93925V3.10916C7.02219 3.89664 7.69064 4.54019 8.51335 4.54019H13.4839C14.3045 4.54019 14.9751 3.89869 14.9751 3.10916V1.93925H7.02433H7.02219Z" fill="#333333"/>
<path d="M12.8659 10.4493C13.1097 9.45796 12.4699 8.46464 11.4369 8.23067C10.4039 7.99669 9.36886 8.61065 9.12505 9.60199C8.88124 10.5933 9.521 11.5866 10.554 11.8206C11.587 12.0546 12.6221 11.4406 12.8659 10.4493Z" fill="#3C83F6"/>
<path d="M10.9988 12.5895C9.52479 12.5895 8.32715 11.4402 8.32715 10.0256C8.32715 8.61102 9.52479 7.46167 10.9988 7.46167C12.4728 7.46167 13.6705 8.61102 13.6705 10.0256C13.6705 11.4402 12.4728 12.5895 10.9988 12.5895ZM10.9988 8.90092C10.3518 8.90092 9.82688 9.40466 9.82688 10.0256C9.82688 10.6465 10.3518 11.1503 10.9988 11.1503C11.6458 11.1503 12.1707 10.6465 12.1707 10.0256C12.1707 9.40466 11.6458 8.90092 10.9988 8.90092Z" fill="#333333"/>
<path d="M10.9792 11.8823H11.0178C12.3954 11.8823 13.5137 12.9556 13.5137 14.2777V14.5162C13.5137 15.0919 13.0274 15.5586 12.4275 15.5586H9.57159C8.97169 15.5586 8.48535 15.0919 8.48535 14.5162V14.2777C8.48535 12.9556 9.60372 11.8823 10.9813 11.8823H10.9792Z" fill="#3C83F6"/>
<path d="M12.4283 16.2781H9.57243C8.55904 16.2781 7.73633 15.4886 7.73633 14.5161V14.2776C7.73633 12.5607 9.19107 11.1626 10.9822 11.1626H11.0207C12.8097 11.1626 14.2666 12.5587 14.2666 14.2776V14.5161C14.2666 15.4886 13.4439 16.2781 12.4305 16.2781H12.4283ZM10.9822 12.6019C10.0202 12.6019 9.23606 13.3523 9.23606 14.2776V14.5161C9.23606 14.6949 9.38818 14.8389 9.57243 14.8389H12.4283C12.6147 14.8389 12.7647 14.6949 12.7647 14.5161V14.2776C12.7647 13.3544 11.9827 12.6019 11.0186 12.6019H10.98H10.9822Z" fill="#333333"/>
<path d="M14.9027 19.1753H7.09557C6.68207 19.1753 6.3457 18.8525 6.3457 18.4557C6.3457 18.0589 6.68207 17.7361 7.09557 17.7361H14.9027C15.3162 17.7361 15.6526 18.0589 15.6526 18.4557C15.6526 18.8525 15.3162 19.1753 14.9027 19.1753Z" fill="#333333"/>
</g>
<defs>
<clipPath id="clip0_390_4340">
<rect width="22" height="22" fill="white"/>
</clipPath>
</defs>
</svg>
