<svg width="120" height="29" viewBox="0 0 120 29" fill="none" xmlns="http://www.w3.org/2000/svg">
<g style="mix-blend-mode:luminosity">
<g opacity="0.5">
<path d="M28.9255 14.448C28.9255 22.4271 22.4499 28.8961 14.4692 28.8961C6.48839 28.8961 0 22.4271 0 14.448C0 6.46898 6.47558 0 14.4628 0C22.4499 0 28.9191 6.46898 28.9191 14.448H28.9255Z" fill="white"/>
<path d="M14.4628 28.1666C22.0721 28.1666 28.2466 21.9983 28.2466 14.3968C28.2466 6.79527 22.0785 0.633423 14.4628 0.633423C6.84708 0.633423 0.678955 6.79527 0.678955 14.3968C0.678955 21.9983 6.84708 28.1666 14.4628 28.1666Z" fill="#007CC0"/>
<mask id="mask0_234_4413" style="mask-type:luminance" maskUnits="userSpaceOnUse" x="0" y="0" width="29" height="29">
<path d="M14.4628 28.1666C22.0721 28.1666 28.2466 21.9983 28.2466 14.3968C28.2466 6.79527 22.0785 0.633423 14.4628 0.633423C6.84708 0.633423 0.678955 6.79527 0.678955 14.3968C0.678955 21.9983 6.84708 28.1666 14.4628 28.1666Z" fill="white"/>
</mask>
<g mask="url(#mask0_234_4413)">
<path d="M14.5204 21.0449C20.5796 21.0449 25.7678 22.7277 27.9968 25.1272C28.7398 23.4188 29.1497 21.5312 29.1497 19.554C29.1497 11.6518 22.5973 5.25317 14.5204 5.25317C6.44355 5.25317 -0.108887 11.6518 -0.108887 19.554C-0.108887 21.5312 0.301041 23.4124 1.05044 25.1272C3.26661 22.7277 8.46757 21.0449 14.5204 21.0449Z" fill="#007CC0"/>
<path d="M14.5141 21.0578C20.5542 21.0578 25.7359 22.7279 27.9521 25.1081C28.6951 23.4125 29.105 21.5377 29.105 19.5798C29.105 11.7415 22.5654 5.37488 14.5141 5.37488C6.46291 5.37488 -0.0703125 11.7479 -0.0703125 19.5798C-0.0703125 21.5441 0.339615 23.4125 1.08261 25.1081C3.29237 22.7279 8.48052 21.0578 14.5205 21.0578H14.5141Z" fill="#007EC2"/>
<path d="M14.5141 21.0769C20.5413 21.0769 25.7038 22.7341 27.92 25.0952C28.663 23.4124 29.0729 21.5568 29.0729 19.6116C29.0729 11.8373 22.5525 5.50269 14.5205 5.50269C6.48849 5.50269 -0.0383301 11.8373 -0.0383301 19.6116C-0.0383301 21.5568 0.371598 23.4124 1.11459 25.0952C3.31795 22.7341 8.49329 21.0769 14.5141 21.0769Z" fill="#0080C3"/>
<path d="M14.514 21.0897C20.522 21.0897 25.6781 22.7341 27.8815 25.076C28.6245 23.406 29.028 21.5632 29.028 19.6372C29.028 11.9269 22.5268 5.62427 14.514 5.62427C6.5012 5.62427 0 11.9269 0 19.6372C0 21.5696 0.409928 23.406 1.14652 25.076C3.34988 22.7341 8.506 21.0897 14.514 21.0897Z" fill="#0082C4"/>
<path d="M14.514 21.1025C20.5091 21.1025 25.6461 22.7342 27.8494 25.0569C28.586 23.3996 28.9959 21.576 28.9959 19.6628C28.9959 12.0165 22.5075 5.7395 14.514 5.7395C6.52037 5.7395 0.0319824 12.0165 0.0319824 19.6628C0.0319824 21.576 0.44191 23.3996 1.1785 25.0569C3.37545 22.7342 8.51877 21.1025 14.514 21.1025Z" fill="#0083C5"/>
<path d="M14.5077 21.1218C20.4837 21.1218 25.6142 22.7407 27.8047 25.0441C28.5413 23.3997 28.9448 21.5889 28.9448 19.6949C28.9448 12.1126 22.4757 5.86755 14.5013 5.86755C6.52692 5.86755 0.0705566 12.1062 0.0705566 19.6885C0.0705566 21.5889 0.480484 23.3933 1.21067 25.0377C3.40122 22.7343 8.53172 21.1154 14.5077 21.1154V21.1218Z" fill="#0085C8"/>
<path d="M14.5077 21.1346C20.4708 21.1346 25.5821 22.7343 27.7726 25.025C28.5092 23.3933 28.9128 21.6017 28.9128 19.7205C28.9128 12.2022 22.4628 5.98914 14.5077 5.98914C6.55249 5.98914 0.102539 12.1958 0.102539 19.7205C0.102539 21.6017 0.506061 23.3933 1.24265 25.025C3.4268 22.7407 8.54449 21.1346 14.5077 21.1346Z" fill="#0088CA"/>
<path d="M14.5076 21.1473C20.4579 21.1473 25.5564 22.7342 27.7405 24.9993C28.4771 23.3869 28.8742 21.6016 28.8742 19.7397C28.8742 12.2853 22.4371 6.10425 14.5076 6.10425C6.57801 6.10425 0.140869 12.2853 0.140869 19.7461C0.140869 21.6144 0.544392 23.3933 1.27458 25.0057C3.45232 22.7406 8.5572 21.1537 14.5011 21.1537L14.5076 21.1473Z" fill="#0089CB"/>
<path d="M14.5075 21.1666C20.4386 21.1666 25.5307 22.7407 27.702 24.9866C28.4322 23.3869 28.8357 21.6209 28.8357 19.7717C28.8357 12.3814 22.4178 6.2323 14.5075 6.2323C6.59713 6.2323 0.179199 12.375 0.179199 19.7717C0.179199 21.6209 0.582722 23.3869 1.31291 24.9866C3.48424 22.7407 8.57631 21.1666 14.5075 21.1666Z" fill="#008BCD"/>
<path d="M14.5012 21.1794C20.4196 21.1794 25.4924 22.7407 27.6638 24.9674C28.394 23.3805 28.7911 21.6273 28.7911 19.7973C28.7911 12.4709 22.3924 6.35388 14.5012 6.35388C6.61014 6.35388 0.211426 12.4709 0.211426 19.7973C0.211426 21.6337 0.614948 23.3805 1.33873 24.9674C3.50366 22.7407 8.58292 21.1794 14.5012 21.1794Z" fill="#008DD0"/>
<path d="M14.5011 21.1983C20.4003 21.1983 25.4667 22.7468 27.6252 24.9543C28.3554 23.3803 28.7525 21.6462 28.7525 19.829C28.7525 12.5602 22.3666 6.48157 14.5011 6.48157C6.63566 6.48157 0.249756 12.5602 0.249756 19.829C0.249756 21.6462 0.653278 23.3803 1.37706 24.9543C3.53558 22.7468 8.60203 21.1983 14.5011 21.1983Z" fill="#008FD1"/>
<path d="M14.5013 21.2114C20.3877 21.2114 25.4349 22.7471 27.5934 24.9354C28.3172 23.3742 28.7143 21.6593 28.7143 19.8549C28.7143 12.6501 22.3476 6.59705 14.4949 6.59705C6.64226 6.59705 0.281982 12.6501 0.281982 19.8549C0.281982 21.6593 0.6791 23.3742 1.40288 24.9354C3.5614 22.7471 8.60864 21.2114 14.4949 21.2114H14.5013Z" fill="#0090D3"/>
<path d="M14.4946 21.2242C20.3681 21.2242 25.4025 22.7471 27.5546 24.9162C28.2784 23.3678 28.6755 21.6657 28.6755 19.8805C28.6755 12.7397 22.3281 6.71863 14.4946 6.71863C6.66114 6.71863 0.320068 12.7397 0.320068 19.8805C0.320068 21.6657 0.717186 23.3678 1.44096 24.9162C3.59308 22.7471 8.62751 21.2242 14.4946 21.2242Z" fill="#0093D5"/>
<path d="M14.4947 21.2432C20.349 21.2432 25.3706 22.7469 27.5163 24.8968C28.2401 23.3675 28.6372 21.6719 28.6372 19.9059C28.6372 12.8291 22.3026 6.83997 14.4947 6.83997C6.6869 6.83997 0.358643 12.8291 0.358643 19.9059C0.358643 21.6783 0.75576 23.3675 1.47954 24.8968C3.62525 22.7469 8.64687 21.2432 14.5011 21.2432H14.4947Z" fill="#0095D6"/>
<path d="M14.4947 21.256C20.3362 21.256 25.345 22.7469 27.4843 24.8776C28.2017 23.3611 28.5988 21.6847 28.5988 19.9315C28.5988 12.9186 22.2833 6.96155 14.4947 6.96155C6.70607 6.96155 0.390625 12.9186 0.390625 19.9315C0.390625 21.6847 0.787742 23.3611 1.50512 24.8776C3.64443 22.7469 8.65323 21.256 14.4947 21.256Z" fill="#0097D7"/>
<path d="M14.4951 21.2755C20.3173 21.2755 25.3133 22.7536 27.4462 24.8651C28.1636 23.3615 28.5607 21.7042 28.5607 19.9638C28.5607 13.0149 22.2581 7.08984 14.4951 7.08984C6.73208 7.08984 0.429443 13.0085 0.429443 19.9638C0.429443 21.7042 0.826561 23.3615 1.54393 24.8651C3.67684 22.7536 8.67283 21.2755 14.4951 21.2755Z" fill="#0098D8"/>
<path d="M14.4881 21.288C20.2976 21.288 25.2808 22.7533 27.4073 24.8456C28.1246 23.3548 28.5154 21.7103 28.5154 19.9891C28.5154 13.1042 22.2319 7.20471 14.4881 7.20471C6.74436 7.20471 0.460938 13.1042 0.460938 19.9891C0.460938 21.7167 0.858055 23.3548 1.56902 24.8456C3.69552 22.7533 8.67871 21.288 14.4881 21.288Z" fill="#009BD9"/>
<path d="M14.4885 21.3008C20.2788 21.3008 25.2491 22.7533 27.3756 24.8265C28.093 23.3484 28.4837 21.7231 28.4837 20.0147C28.4837 13.1938 22.2195 7.32629 14.4949 7.32629C6.77037 7.32629 0.499756 13.1938 0.499756 20.0147C0.499756 21.7231 0.890468 23.3484 1.60784 24.8265C3.72794 22.7533 8.69831 21.3008 14.4949 21.3008H14.4885Z" fill="#009DDA"/>
<path d="M14.4882 21.3201C20.2657 21.3201 25.2232 22.7598 27.3369 24.8137C28.0479 23.3485 28.4386 21.736 28.4386 20.0468C28.4386 13.2899 22.1936 7.45435 14.4818 7.45435C6.77008 7.45435 0.531494 13.2835 0.531494 20.0404C0.531494 21.7296 0.922206 23.3421 1.63317 24.8073C3.74686 22.7534 8.71083 21.3137 14.4818 21.3137L14.4882 21.3201Z" fill="#00A0DA"/>
<path d="M14.4822 21.3329C20.2404 21.3329 25.1852 22.7598 27.2989 24.7945C28.0098 23.3421 28.4006 21.7488 28.4006 20.0724C28.4006 13.3795 22.1684 7.57593 14.4822 7.57593C6.79609 7.57593 0.570312 13.3731 0.570312 20.0724C0.570312 21.7488 0.961025 23.3485 1.67199 24.7945C3.77928 22.7598 8.73044 21.3329 14.4886 21.3329H14.4822Z" fill="#00A2DB"/>
<path d="M14.4821 21.3457C20.2275 21.3457 25.1595 22.7598 27.2668 24.7754C27.9777 23.3421 28.362 21.7552 28.362 20.098C28.362 13.469 22.1491 7.69751 14.4821 7.69751C6.8152 7.69751 0.608643 13.4626 0.608643 20.098C0.608643 21.7616 0.999355 23.3421 1.70392 24.7754C3.8112 22.7598 8.74314 21.3457 14.4821 21.3457Z" fill="#00A4DC"/>
<path d="M14.4821 21.3649C20.2147 21.3649 25.1274 22.7598 27.2283 24.7562C27.9392 23.3357 28.3235 21.768 28.3235 20.1236C28.3235 13.5522 22.1234 7.81909 14.4821 7.81909C6.84078 7.81909 0.640625 13.5522 0.640625 20.1236C0.640625 21.768 1.03134 23.3357 1.7359 24.7562C3.83678 22.7598 8.75591 21.3649 14.4821 21.3649Z" fill="#00A6DC"/>
<path d="M14.482 21.3778C20.1954 21.3778 25.1017 22.7599 27.1961 24.737C27.9007 23.3293 28.285 21.7745 28.285 20.1492C28.285 13.6419 22.1041 7.93433 14.482 7.93433C6.8599 7.93433 0.678955 13.6483 0.678955 20.1492C0.678955 21.7809 1.06967 23.3293 1.76783 24.737C3.8623 22.7599 8.76862 21.3778 14.482 21.3778Z" fill="#00A8DD"/>
<path d="M14.4758 21.3969C20.1763 21.3969 25.0634 22.7662 27.1515 24.7242C27.8561 23.3293 28.2404 21.7936 28.2404 20.1812C28.2404 13.7378 22.0787 8.06226 14.4758 8.06226C6.87291 8.06226 0.711182 13.7378 0.711182 20.1748C0.711182 21.7872 1.10189 23.3229 1.80005 24.7178C3.88812 22.7598 8.78163 21.3905 14.4758 21.3905V21.3969Z" fill="#00A9DE"/>
<path d="M14.4757 21.4097C20.157 21.4097 25.0377 22.7662 27.1194 24.705C27.8239 23.3229 28.2083 21.8 28.2083 20.2068C28.2083 13.8274 22.0593 8.18384 14.4821 8.18384C6.90483 8.18384 0.749512 13.8274 0.749512 20.2068C0.749512 21.8064 1.13382 23.3293 1.83198 24.705C3.91364 22.7662 8.79434 21.4097 14.4757 21.4097Z" fill="#00ABDF"/>
<path d="M14.4756 21.4289C20.1442 21.4289 25.0121 22.7726 27.0809 24.6922C27.7791 23.3229 28.1634 21.8192 28.1634 20.2387C28.1634 13.9233 22.0337 8.31177 14.4692 8.31177C6.90479 8.31177 0.781494 13.9169 0.781494 20.2324C0.781494 21.8128 1.1658 23.3229 1.86396 24.6858C3.93922 22.7662 8.80711 21.4225 14.4692 21.4225L14.4756 21.4289Z" fill="#00ADE0"/>
<path d="M14.4755 21.4418C20.1249 21.4418 24.9799 22.7727 27.0488 24.6731C27.7469 23.323 28.1313 21.8257 28.1313 20.2645C28.1313 14.013 22.0208 8.43347 14.4755 8.43347C6.93031 8.43347 0.819824 14.0066 0.819824 20.2581C0.819824 21.8257 1.20413 23.3166 1.89588 24.6667C3.96474 22.7663 8.81982 21.4354 14.4691 21.4354L14.4755 21.4418Z" fill="#00AFE1"/>
<path d="M14.4693 21.4543C20.1058 21.4543 24.9481 22.766 27.0105 24.6472C27.7087 23.3099 28.0866 21.8318 28.0866 20.2834C28.0866 14.0959 21.9889 8.54834 14.4693 8.54834C6.94967 8.54834 0.858398 14.0959 0.858398 20.2834C0.858398 21.8318 1.24271 23.3099 1.93446 24.6472C3.99691 22.766 8.83918 21.4543 14.4757 21.4543H14.4693Z" fill="#00B1E2"/>
<path d="M14.4692 21.4738C20.0929 21.4738 24.916 22.7727 26.972 24.6347C27.6638 23.3102 28.0481 21.8449 28.0481 20.3157C28.0481 14.1922 21.9696 8.67664 14.4692 8.67664C6.96884 8.67664 0.890381 14.1858 0.890381 20.3157C0.890381 21.8449 1.27469 23.3102 1.96644 24.6347C4.02248 22.7727 8.85194 21.4738 14.4692 21.4738Z" fill="#0AB2E3"/>
<path d="M14.4694 21.4863C20.0739 21.4863 24.8905 22.7724 26.9401 24.6152C27.6319 23.3035 28.0098 21.8574 28.0098 20.341C28.0098 14.2815 21.9506 8.7915 14.4694 8.7915C6.9882 8.7915 0.928955 14.2751 0.928955 20.341C0.928955 21.8574 1.30686 23.3035 1.99861 24.6152C4.05465 22.7724 8.8649 21.4863 14.4694 21.4863Z" fill="#16B4E4"/>
<path d="M14.4627 21.4991C20.0544 21.4991 24.8518 22.7724 26.895 24.596C27.5868 23.2971 27.9647 21.8638 27.9647 20.3666C27.9647 14.3647 21.9182 8.91309 14.4627 8.91309C7.00713 8.91309 0.960693 14.3711 0.960693 20.3666C0.960693 21.8638 1.3386 23.3035 2.03035 24.596C4.07999 22.7724 8.87742 21.4991 14.4627 21.4991Z" fill="#23B6E6"/>
<path d="M14.4628 21.5184C20.0353 21.5184 24.8263 22.7789 26.8631 24.5833C27.5549 23.2972 27.9264 21.8831 27.9264 20.3986C27.9264 14.4607 21.8992 9.04114 14.4628 9.04114C7.02648 9.04114 0.999268 14.4607 0.999268 20.3922C0.999268 21.8767 1.37717 23.2972 2.06252 24.5769C4.10575 22.7725 8.89037 21.512 14.4628 21.512V21.5184Z" fill="#30B8E7"/>
<path d="M14.4629 21.5504C20.0289 21.5504 24.8072 22.8045 26.844 24.5961C27.5293 23.3164 27.9072 21.9151 27.9072 20.437C27.9072 14.5375 21.8864 9.1499 14.4629 9.1499C7.03937 9.1499 1.01855 14.5375 1.01855 20.437C1.01855 21.9151 1.39646 23.3228 2.0818 24.5961C4.12504 22.8045 8.90326 21.5504 14.4693 21.5504H14.4629Z" fill="#43BBE8"/>
<path d="M14.4627 21.5888C20.0224 21.5888 24.7942 22.8302 26.831 24.6154C27.5164 23.3484 27.8943 21.9472 27.8943 20.4819C27.8943 14.6208 21.8863 9.26514 14.4627 9.26514C7.03919 9.26514 1.0376 14.6208 1.0376 20.4819C1.0376 21.9472 1.4155 23.3484 2.10085 24.6154C4.13768 22.8302 8.90949 21.5888 14.4691 21.5888H14.4627Z" fill="#50BDEA"/>
<path d="M14.4629 21.6208C20.0161 21.6208 24.7815 22.8557 26.8119 24.6282C27.4973 23.3676 27.8752 21.9791 27.8752 20.5203C27.8752 14.7039 21.8736 9.3739 14.4629 9.3739C7.05213 9.3739 1.05054 14.7039 1.05054 20.5203C1.05054 21.9791 1.42844 23.3676 2.10738 24.6282C4.14421 22.8557 8.90962 21.6208 14.4565 21.6208H14.4629Z" fill="#5AC0EC"/>
<path d="M14.4629 21.6593C20.0098 21.6593 24.7688 22.8878 26.7928 24.641C27.4781 23.3869 27.8496 22.0112 27.8496 20.5651C27.8496 14.7872 21.8544 9.48914 14.4565 9.48914C7.05861 9.48914 1.06982 14.7808 1.06982 20.5651C1.06982 22.0112 1.44773 23.3933 2.12667 24.641C4.15709 22.8814 8.9161 21.6593 14.4629 21.6593Z" fill="#64C3EE"/>
<path d="M14.463 21.6914C19.997 21.6914 24.756 22.9135 26.78 24.6539C27.4654 23.4126 27.8369 22.0433 27.8369 20.6036C27.8369 14.8641 21.8481 9.59802 14.463 9.59802C7.0779 9.59802 1.08911 14.8641 1.08911 20.6036C1.08911 22.0433 1.46701 23.4126 2.14596 24.6539C4.17638 22.9071 8.92898 21.6914 14.463 21.6914Z" fill="#6DC6EF"/>
<path d="M14.4626 21.7295C19.9902 21.7295 24.7364 22.9388 26.7604 24.6728C27.4394 23.4379 27.8173 22.0814 27.8173 20.6481C27.8173 14.9469 21.8413 9.71289 14.4626 9.71289C7.08389 9.71289 1.10791 14.9469 1.10791 20.6481C1.10791 22.075 1.48581 23.4379 2.16475 24.6728C4.18877 22.9388 8.94137 21.7295 14.469 21.7295H14.4626Z" fill="#76C9F1"/>
<path d="M14.4629 21.7616C19.9841 21.7616 24.7239 22.9645 26.7479 24.6857C27.4269 23.4572 27.8048 22.1071 27.8048 20.693C27.8048 15.0302 21.8352 9.82178 14.4693 9.82178C7.10342 9.82178 1.12744 15.0302 1.12744 20.693C1.12744 22.1135 1.50534 23.4636 2.17788 24.6921C4.2019 22.9709 8.94169 21.768 14.4629 21.768V21.7616Z" fill="#7ECBF1"/>
<path d="M14.4627 21.7999C19.9775 21.7999 24.7109 22.9964 26.7285 24.7049C27.4075 23.4891 27.7854 22.1454 27.7854 20.7377C27.7854 15.1134 21.8222 9.93689 14.4691 9.93689C7.11605 9.93689 1.14648 15.107 1.14648 20.7313C1.14648 22.139 1.51798 23.4827 2.19692 24.6985C4.22094 22.99 8.95432 21.7935 14.4691 21.7935L14.4627 21.7999Z" fill="#85CDF1"/>
<path d="M14.4629 21.832C19.9713 21.832 24.6982 23.0157 26.7094 24.7178C27.3884 23.5084 27.7599 22.1775 27.7599 20.7762C27.7599 15.1902 21.8031 10.0458 14.4565 10.0458C7.10978 10.0458 1.15942 15.1902 1.15942 20.7762C1.15942 22.1775 1.53092 23.5148 2.20986 24.7178C4.22748 23.0221 8.95445 21.832 14.4629 21.832Z" fill="#8CD0F1"/>
<path d="M14.4627 21.8704C19.9583 21.8704 24.6853 23.0478 26.6965 24.737C27.3754 23.5341 27.7469 22.216 27.7469 20.8211C27.7469 15.2735 21.8029 10.161 14.4627 10.161C7.12242 10.161 1.17847 15.2735 1.17847 20.8211C1.17847 22.2096 1.54996 23.5405 2.22891 24.737C4.24652 23.0478 8.96709 21.8704 14.4627 21.8704Z" fill="#94D2F1"/>
<path d="M14.4628 21.9024C19.9519 21.9024 24.6661 23.0733 26.6773 24.7497C27.3499 23.5596 27.7278 22.2415 27.7278 20.8658C27.7278 15.3566 21.7902 10.2761 14.4628 10.2761C7.1353 10.2761 1.19775 15.3502 1.19775 20.8594C1.19775 22.2415 1.56925 23.5596 2.24179 24.7497C4.253 23.0733 8.97357 21.9024 14.4628 21.9024Z" fill="#9AD5F1"/>
<path d="M14.4628 21.9408C19.9456 21.9408 24.6534 23.1054 26.6582 24.769C27.3307 23.5853 27.7086 22.2799 27.7086 20.9106C27.7086 15.4399 21.7775 10.3914 14.4628 10.3914C7.14818 10.3914 1.21704 15.4335 1.21704 20.9042C1.21704 22.2735 1.58854 23.5853 2.26108 24.769C4.27228 23.1054 8.98005 21.9408 14.4628 21.9408Z" fill="#9ED7F1"/>
<path d="M14.4629 21.9726C19.9393 21.9726 24.6406 23.1244 26.6454 24.7752C27.318 23.6043 27.6895 22.3053 27.6895 20.9424C27.6895 15.51 21.7647 10.4935 14.4629 10.4935C7.16106 10.4935 1.23633 15.5164 1.23633 20.9424C1.23633 22.3053 1.60783 23.6043 2.28036 24.7752C4.29157 23.1244 8.99293 21.9726 14.4693 21.9726H14.4629Z" fill="#A5D9F1"/>
<path d="M14.4628 22.0113C19.9328 22.0113 24.6277 23.1567 26.6261 24.7947C27.2986 23.6302 27.6701 22.3376 27.6701 20.9875C27.6701 15.5935 21.7582 10.609 14.4628 10.609C7.16735 10.609 1.24902 15.5935 1.24902 20.9875C1.24902 22.3376 1.62052 23.6302 2.29306 24.7947C4.29786 23.1567 8.99281 22.0113 14.4628 22.0113Z" fill="#ABDBF1"/>
<path d="M14.4629 22.0431C19.92 22.0431 24.6086 23.1821 26.607 24.8073C27.2795 23.6492 27.651 22.3694 27.651 21.0321C27.651 15.6765 21.7455 10.724 14.4629 10.724C7.18024 10.724 1.26831 15.6765 1.26831 21.0321C1.26831 22.3758 1.63981 23.6556 2.30594 24.8137C4.31074 23.1821 8.99929 22.0495 14.4565 22.0495L14.4629 22.0431Z" fill="#B0DCF1"/>
<path d="M14.4627 22.0814C19.9134 22.0814 24.5956 23.2076 26.594 24.8264C27.2665 23.6747 27.638 22.4078 27.638 21.0769C27.638 15.7596 21.7389 10.8391 14.4627 10.8391C7.18647 10.8391 1.28735 15.7596 1.28735 21.0705C1.28735 22.4078 1.65885 23.6747 2.32498 24.82C4.32338 23.2012 9.01193 22.075 14.4627 22.075V22.0814Z" fill="#B8DFF0"/>
<path d="M14.4628 22.1135C19.9071 22.1135 24.5828 23.2333 26.5748 24.8393C27.241 23.7004 27.6125 22.4399 27.6125 21.1154C27.6125 15.8365 21.7198 10.948 14.4563 10.948C7.19294 10.948 1.30664 15.8365 1.30664 21.1154C1.30664 22.4399 1.67814 23.7004 2.34427 24.8393C4.34267 23.2333 9.0184 22.1135 14.4628 22.1135Z" fill="#BDE1F1"/>
<path d="M14.4628 22.152C19.9008 22.152 24.5701 23.2654 26.5621 24.8586C27.2282 23.7261 27.5997 22.4783 27.5997 21.1666C27.5997 15.9262 21.7198 11.0632 14.4628 11.0632C7.20583 11.0632 1.32593 15.9198 1.32593 21.1602C1.32593 22.4719 1.69742 23.7261 2.36356 24.8586C4.36195 23.2654 9.03129 22.152 14.4692 22.152H14.4628Z" fill="#C3E2F1"/>
<path d="M14.4629 22.184C19.8944 22.184 24.551 23.2909 26.543 24.8714C27.2091 23.7452 27.5806 22.5039 27.5806 21.205C27.5806 16.0029 21.7071 11.172 14.4629 11.172C7.21871 11.172 1.34521 16.0029 1.34521 21.1986C1.34521 22.5039 1.71671 23.7452 2.37644 24.865C4.36843 23.2845 9.03136 22.184 14.4629 22.1776V22.184Z" fill="#C8E4F1"/>
<path d="M14.463 22.2157C19.8881 22.2157 24.5382 23.3163 26.5238 24.8839C27.1899 23.7706 27.5614 22.5356 27.5614 21.2431C27.5614 16.0795 21.6943 11.2805 14.463 11.2805C7.23159 11.2805 1.3645 16.0795 1.3645 21.2431C1.3645 22.542 1.736 23.7706 2.39573 24.8839C4.38772 23.3163 9.04424 22.2221 14.463 22.2157Z" fill="#CDE6F1"/>
<path d="M14.4629 22.2545C19.8752 22.2545 24.5253 23.3422 26.5109 24.8971C27.177 23.7901 27.5485 22.568 27.5485 21.2819C27.5485 16.1566 21.6878 11.3896 14.4693 11.3896C7.25069 11.3896 1.3772 16.163 1.3772 21.2883C1.3772 22.5744 1.74229 23.7965 2.40842 24.9035C4.39401 23.3486 9.04413 22.2609 14.4629 22.2545Z" fill="#D3E8F3"/>
<path d="M14.4629 22.2863C19.8688 22.2863 24.5126 23.3676 26.4917 24.9097C27.1515 23.8091 27.523 22.5998 27.523 21.3265C27.523 16.2396 21.6751 11.5046 14.4629 11.5046C7.25076 11.5046 1.39648 16.246 1.39648 21.3265C1.39648 22.6062 1.76158 23.8155 2.42771 24.9161C4.4133 23.374 9.05701 22.2927 14.4629 22.2927V22.2863Z" fill="#D8EAF3"/>
<path d="M14.4628 22.3246C19.8623 22.3246 24.4996 23.3996 26.4788 24.9288C27.1385 23.8411 27.51 22.6317 27.51 21.3712C27.51 16.3227 21.6685 11.6198 14.4628 11.6198C7.257 11.6198 1.41553 16.3227 1.41553 21.3712C1.41553 22.6381 1.78062 23.8411 2.44035 24.9352C4.41953 23.3996 9.06324 22.331 14.4628 22.331V22.3246Z" fill="#DDEDF5"/>
<path d="M14.4628 22.3567C19.8559 22.3567 24.4804 23.4253 26.4596 24.9417C27.1193 23.8604 27.4908 22.6638 27.4908 21.4097C27.4908 16.3996 21.6558 11.7286 14.4628 11.7286C7.26988 11.7286 1.43481 16.406 1.43481 21.4097C1.43481 22.6702 1.79991 23.8604 2.45963 24.9417C4.43882 23.4189 9.06972 22.3567 14.4628 22.3567Z" fill="#E2EFF6"/>
<path d="M14.4627 22.3952C19.8494 22.3952 24.4675 23.4509 26.4402 24.961C27.1 23.886 27.4715 22.7023 27.4715 21.4546C27.4715 16.4829 21.6492 11.8439 14.4627 11.8439C7.27611 11.8439 1.45386 16.4893 1.45386 21.4546C1.45386 22.7023 1.81895 23.886 2.47868 24.961C4.45786 23.4509 9.08235 22.3952 14.4691 22.3952H14.4627Z" fill="#E6F1F7"/>
<path d="M14.4628 22.4271C19.8367 22.4271 24.4548 23.4765 26.4275 24.9737C27.0873 23.9116 27.4524 22.7342 27.4524 21.4993C27.4524 16.566 21.6365 11.959 14.4628 11.959C7.28905 11.959 1.4668 16.566 1.4668 21.4993C1.4668 22.7406 1.83189 23.9116 2.49162 24.9801C4.46439 23.4829 9.08248 22.4335 14.4628 22.4335V22.4271Z" fill="#EBF3F8"/>
<path d="M14.4629 22.4653C19.8303 22.4653 24.442 23.5083 26.4084 24.9927C27.0617 23.937 27.4332 22.7724 27.4332 21.5439C27.4332 16.649 21.6238 12.074 14.4629 12.074C7.30193 12.074 1.48608 16.649 1.48608 21.5375C1.48608 22.766 1.85118 23.937 2.5045 24.9927C4.47727 23.5083 9.08896 22.4653 14.4564 22.4653H14.4629Z" fill="#F0F6FA"/>
<path d="M14.4629 22.504C19.824 22.504 24.4229 23.5342 26.3893 25.0059C27.0426 23.9629 27.4141 22.7984 27.4141 21.5826C27.4141 16.7261 21.611 12.1831 14.4629 12.1831C7.31481 12.1831 1.50537 16.7325 1.50537 21.5826C1.50537 22.8048 1.87046 23.9565 2.52379 25.0059C4.49016 23.5342 9.10184 22.504 14.4629 22.4976V22.504Z" fill="#F4F9FB"/>
<path d="M14.4628 22.5358C19.8174 22.5358 24.4099 23.5596 26.3763 25.0248C27.0296 23.9883 27.4011 22.8365 27.4011 21.6272C27.4011 16.809 21.6109 12.2916 14.4692 12.2916C7.32745 12.2916 1.52441 16.809 1.52441 21.6272C1.52441 22.8365 1.88951 23.9883 2.54283 25.0248C4.5092 23.5596 9.10808 22.5422 14.4628 22.5358Z" fill="#F7FBFC"/>
<path d="M14.4628 22.5678C19.8111 22.5678 24.3972 23.5852 26.3571 25.0377C27.0105 24.0075 27.3755 22.8686 27.3755 21.672C27.3755 16.8923 21.5917 12.4069 14.4564 12.4069C7.32112 12.4069 1.5437 16.8923 1.5437 21.6656C1.5437 22.8686 1.90879 24.0075 2.56212 25.0377C4.52849 23.5852 9.12096 22.5742 14.4692 22.5678H14.4628Z" fill="#FCFDFE"/>
<path d="M14.4627 22.6062C19.8045 22.6062 24.3842 23.6172 26.3441 25.0505C26.9975 24.0267 27.3626 22.8941 27.3626 21.7104C27.3626 16.969 21.5851 12.5156 14.4627 12.5156C7.34016 12.5156 1.56274 16.9754 1.56274 21.7104C1.56274 22.9069 1.92784 24.0331 2.57475 25.0569C4.53472 23.6172 9.12719 22.6126 14.4627 22.6062Z" fill="white"/>
</g>
<path d="M14.463 17.8712C9.78727 17.8712 5.45101 18.6646 1.87695 20.0019C4.02267 24.8137 8.85213 28.1666 14.4694 28.1666C20.0867 28.1666 24.9098 24.8137 27.0619 20.0019C23.4814 18.6646 19.1387 17.8712 14.4694 17.8712H14.463Z" fill="#007CC0"/>
<path d="M77.7712 18.3574H80.7496C81.0058 18.383 81.23 18.4662 81.4093 18.7605C81.5503 18.9908 81.531 19.7715 81.531 19.7715V25.1335C81.5695 25.639 81.8129 26.5156 83.6575 26.586H97.3389V24.692H85.6752C84.9386 24.7368 84.8681 24.3785 84.8489 23.9306V19.4451C84.8489 18.9972 84.7848 18.5941 84.4069 18.3574H98.8441V16.4762H77.7776V18.3574H77.7712Z" fill="#0064A9"/>
<path d="M88.8072 14.5183C92.9577 14.5183 96.3268 12.2532 96.3268 8.90032C96.3268 5.54745 92.9577 3.28235 88.8072 3.28235C84.6567 3.28235 81.2876 5.54745 81.2876 8.90032C81.2876 12.2532 84.6567 14.5183 88.8072 14.5183ZM88.8072 5.20193C91.081 5.20193 92.9257 6.63521 92.9257 8.90032C92.9257 11.1654 91.081 12.6051 88.8072 12.6051C86.5334 12.6051 84.6887 11.1654 84.6887 8.90032C84.6887 6.63521 86.5334 5.20193 88.8072 5.20193Z" fill="#0064A9"/>
<path d="M32.8391 19.119H41.8127V27.2068H45.2586V19.119H54.2258V17.161H32.8391V19.119Z" fill="#0064A9"/>
<path d="M43.5357 15.0558C47.8976 15.0558 51.4332 12.6756 51.4332 9.15634C51.4332 5.63711 47.8976 3.25684 43.5357 3.25684C39.1738 3.25684 35.6382 5.63072 35.6382 9.15634C35.6382 12.682 39.1738 15.0558 43.5357 15.0558ZM43.5357 5.27239C45.9248 5.27239 47.8591 6.77606 47.8591 9.15634C47.8591 11.5366 45.9248 13.0467 43.5357 13.0467C41.1466 13.0467 39.2122 11.5366 39.2122 9.15634C39.2122 6.77606 41.1466 5.27239 43.5357 5.27239Z" fill="#0064A9"/>
<path d="M104.813 4.42778V5.11243H100.08V6.98722H102.334C101.149 7.85743 100.4 9.14994 100.4 10.7176C100.4 13.6546 103.02 15.6381 106.248 15.6381C109.476 15.6381 112.096 13.6546 112.096 10.7176C112.096 9.14994 111.346 7.85743 110.161 6.98722H112.256V5.11243H107.766V4.05666C107.766 3.53837 107.606 3.25684 106.888 3.25684H104.544C104.544 3.25684 104.813 3.4168 104.813 4.43418V4.42778ZM103.417 10.7176C103.417 8.83641 104.685 7.64627 106.248 7.64627C107.811 7.64627 109.079 8.83641 109.079 10.7176C109.079 12.5988 107.811 13.7889 106.248 13.7889C104.685 13.7889 103.417 12.5988 103.417 10.7176Z" fill="#0064A9"/>
<path d="M112.698 16.3612C108.695 16.3612 105.448 18.5239 105.448 21.7232C105.448 24.9225 108.695 27.0853 112.698 27.0853C116.701 27.0853 119.949 24.9289 119.949 21.7232C119.949 18.5175 116.701 16.3612 112.698 16.3612ZM112.698 25.2233C110.546 25.2233 108.81 23.8668 108.81 21.7296C108.81 19.5925 110.552 18.2296 112.698 18.2296C114.844 18.2296 116.586 19.5861 116.586 21.7296C116.586 23.8732 114.844 25.2233 112.698 25.2233Z" fill="#0064A9"/>
<path d="M117.284 5.52833V8.22854H116.029V4.41498C116.029 3.90949 115.862 3.64075 115.113 3.64075H113.031C113.031 3.64075 113.313 3.89029 113.313 5.52193V15.3182H116.035V10.1673H117.284V15.3182H120V4.41498C120 3.90949 119.833 3.64075 119.084 3.64075H116.996C116.996 3.64075 117.278 3.91589 117.278 5.52193L117.284 5.52833Z" fill="#0064A9"/>
<path d="M71.276 26.5733H74.4978V4.42777C74.4978 3.91589 74.1583 3.64075 73.4025 3.64075H70.9878C70.9878 3.64075 71.276 3.8647 71.276 5.55393V26.5733Z" fill="#0064A9"/>
<path d="M71.2762 16.8477C71.2762 18.6201 68.5476 18.5817 68.5476 18.5817H60.6373C59.9007 18.6265 59.8238 18.2681 59.8046 17.8202V13.0533H66.6325C67.3883 13.0533 67.5612 12.7781 67.5612 12.2663V5.13183C67.5612 4.61994 67.3883 4.3512 66.6325 4.3512H56.0833V6.25158H64.1985V11.1465H56.1537C56.1537 11.1465 56.4419 11.5112 56.4419 12.503V19.0168C56.4804 19.5287 56.7238 20.4053 58.5748 20.4757H67.8302C67.8302 20.4757 71.4555 20.5844 71.4555 19.4391" fill="#0064A9"/>
</g>
</g>
</svg>
