<svg width="24" height="24" viewBox="0 0 24 24" fill="none" xmlns="http://www.w3.org/2000/svg">
<path d="M8.20833 3H5.08333C4.5308 3 4.00089 3.21949 3.61019 3.61019C3.21949 4.00089 3 4.5308 3 5.08333V8.20833" stroke="white" stroke-width="2" stroke-linecap="round" stroke-linejoin="round"/>
<path d="M21.7501 8.20833V5.08333C21.7501 4.5308 21.5306 4.00089 21.1399 3.61019C20.7492 3.21949 20.2193 3 19.6667 3H16.5417" stroke="white" stroke-width="2" stroke-linecap="round" stroke-linejoin="round"/>
<path d="M3 16.5417V19.6667C3 20.2192 3.21949 20.7491 3.61019 21.1398C4.00089 21.5305 4.5308 21.75 5.08333 21.75H8.20833" stroke="white" stroke-width="2" stroke-linecap="round" stroke-linejoin="round"/>
<path d="M16.5417 21.75H19.6667C20.2193 21.75 20.7492 21.5305 21.1399 21.1398C21.5306 20.7491 21.7501 20.2192 21.7501 19.6667V16.5417" stroke="white" stroke-width="2" stroke-linecap="round" stroke-linejoin="round"/>
</svg>
