<svg width="95" height="33" viewBox="0 0 95 33" fill="none" xmlns="http://www.w3.org/2000/svg">
<g opacity="0.3">
<g style="mix-blend-mode:luminosity">
<rect width="32" height="32" rx="12" fill="url(#paint0_linear_234_4498)"/>
<path d="M6.9268 11.2955L9.27238 18.6686H9.36242L11.7127 11.2955H13.9872L10.6418 21H7.99771L4.64756 11.2955H6.9268ZM18.5955 21H15.1553V11.2955H18.6239C19.6 11.2955 20.4404 11.4897 21.1448 11.8783C21.8493 12.2637 22.3911 12.8181 22.7701 13.5415C23.1524 14.2649 23.3435 15.1305 23.3435 16.1383C23.3435 17.1491 23.1524 18.0179 22.7701 18.7445C22.3911 19.471 21.8461 20.0286 21.1353 20.4172C20.4277 20.8057 19.5811 21 18.5955 21ZM17.2071 19.242H18.5102C19.1167 19.242 19.6269 19.1346 20.0407 18.9198C20.4577 18.7018 20.7705 18.3654 20.979 17.9105C21.1906 17.4524 21.2964 16.8617 21.2964 16.1383C21.2964 15.4211 21.1906 14.8351 20.979 14.3802C20.7705 13.9253 20.4593 13.5905 20.0455 13.3757C19.6316 13.1609 19.1215 13.0535 18.5149 13.0535H17.2071V19.242ZM26.9152 11.2955V21H24.8634V11.2955H26.9152Z" fill="white"/>
</g>
<g style="mix-blend-mode:luminosity">
<path d="M42.7244 4.81818L45.1854 12.554H45.2798L47.7457 4.81818H50.1321L46.6222 15H43.848L40.3331 4.81818H42.7244ZM50.8978 15V7.36364H53.0157V15H50.8978ZM51.9617 6.37926C51.6469 6.37926 51.3768 6.27486 51.1514 6.06605C50.9293 5.85393 50.8183 5.60038 50.8183 5.3054C50.8183 5.01373 50.9293 4.76349 51.1514 4.55469C51.3768 4.34257 51.6469 4.23651 51.9617 4.23651C52.2766 4.23651 52.5451 4.34257 52.7671 4.55469C52.9925 4.76349 53.1052 5.01373 53.1052 5.3054C53.1052 5.60038 52.9925 5.85393 52.7671 6.06605C52.5451 6.27486 52.2766 6.37926 51.9617 6.37926ZM54.2923 15V7.36364H56.3455V8.69602H56.4251C56.5643 8.22206 56.798 7.86411 57.1261 7.62216C57.4542 7.37689 57.8321 7.25426 58.2596 7.25426C58.3657 7.25426 58.48 7.26089 58.6026 7.27415C58.7253 7.28741 58.833 7.30563 58.9258 7.32883V9.2081C58.8264 9.17827 58.6888 9.15175 58.5132 9.12855C58.3375 9.10535 58.1767 9.09375 58.0309 9.09375C57.7194 9.09375 57.441 9.1617 57.1957 9.29759C56.9537 9.43016 56.7615 9.61577 56.619 9.8544C56.4798 10.093 56.4102 10.3681 56.4102 10.6797V15H54.2923ZM64.0454 7.36364V8.95455H59.4467V7.36364H64.0454ZM60.4907 5.53409H62.6086V12.6534C62.6086 12.849 62.6384 13.0014 62.6981 13.1108C62.7578 13.2169 62.8406 13.2914 62.9467 13.3345C63.0561 13.3776 63.182 13.3991 63.3245 13.3991C63.4239 13.3991 63.5234 13.3909 63.6228 13.3743C63.7222 13.3544 63.7985 13.3395 63.8515 13.3295L64.1846 14.9055C64.0785 14.9387 63.9294 14.9768 63.7372 15.0199C63.5449 15.0663 63.3113 15.0945 63.0362 15.1044C62.5257 15.1243 62.0783 15.0563 61.6938 14.9006C61.3127 14.7448 61.016 14.5028 60.8039 14.1747C60.5918 13.8466 60.4874 13.4323 60.4907 12.9318V5.53409ZM69.902 11.7486V7.36364H72.0199V15H69.9865V13.6129H69.907C69.7347 14.0604 69.448 14.42 69.0469 14.6918C68.6492 14.9635 68.1636 15.0994 67.5902 15.0994C67.0798 15.0994 66.6307 14.9834 66.2429 14.7514C65.8552 14.5194 65.5519 14.1896 65.3331 13.7621C65.1177 13.3345 65.0083 12.8224 65.005 12.2259V7.36364H67.1229V11.848C67.1262 12.2988 67.2472 12.6551 67.4858 12.9169C67.7245 13.1787 68.0443 13.3097 68.4454 13.3097C68.7006 13.3097 68.9392 13.2517 69.1613 13.1357C69.3833 13.0163 69.5623 12.8407 69.6982 12.6087C69.8374 12.3767 69.9053 12.09 69.902 11.7486ZM75.4716 15.1442C74.9843 15.1442 74.5502 15.0597 74.169 14.8906C73.7878 14.7183 73.4862 14.4647 73.2642 14.13C73.0454 13.7919 72.936 13.371 72.936 12.8672C72.936 12.4429 73.0139 12.0866 73.1697 11.7983C73.3255 11.5099 73.5376 11.2779 73.8061 11.1023C74.0745 10.9266 74.3795 10.794 74.7208 10.7045C75.0655 10.6151 75.4268 10.5521 75.8047 10.5156C76.2488 10.4692 76.6067 10.4261 76.8785 10.3864C77.1503 10.3433 77.3475 10.2803 77.4701 10.1974C77.5928 10.1146 77.6541 9.99195 77.6541 9.82955V9.79972C77.6541 9.48485 77.5547 9.24124 77.3558 9.06889C77.1602 8.89654 76.8818 8.81037 76.5206 8.81037C76.1394 8.81037 75.8361 8.89489 75.6108 9.06392C75.3854 9.22964 75.2362 9.43845 75.1633 9.69034L73.2045 9.53125C73.3039 9.06723 73.4995 8.66619 73.7912 8.32812C74.0828 7.98674 74.459 7.7249 74.9197 7.54261C75.3837 7.35701 75.9207 7.2642 76.5305 7.2642C76.9547 7.2642 77.3608 7.31392 77.7485 7.41335C78.1396 7.51278 78.486 7.6669 78.7876 7.87571C79.0925 8.08452 79.3328 8.35298 79.5085 8.68111C79.6842 9.00592 79.772 9.39536 79.772 9.84943V15H77.7635V13.9411H77.7038C77.5812 14.1797 77.4171 14.3902 77.2116 14.5724C77.0061 14.7514 76.7592 14.8923 76.4708 14.995C76.1825 15.0945 75.8494 15.1442 75.4716 15.1442ZM76.0781 13.6825C76.3896 13.6825 76.6647 13.6212 76.9034 13.4986C77.142 13.3726 77.3293 13.2036 77.4652 12.9915C77.6011 12.7794 77.669 12.5391 77.669 12.2706V11.4602C77.6027 11.5033 77.5116 11.5431 77.3956 11.5795C77.2829 11.6127 77.1553 11.6442 77.0128 11.674C76.8702 11.7005 76.7277 11.7254 76.5852 11.7486C76.4427 11.7685 76.3134 11.7867 76.1974 11.8033C75.9488 11.8397 75.7317 11.8977 75.5461 11.9773C75.3605 12.0568 75.2163 12.1645 75.1136 12.3004C75.0109 12.433 74.9595 12.5987 74.9595 12.7976C74.9595 13.0859 75.0639 13.3063 75.2727 13.4588C75.4848 13.608 75.7533 13.6825 76.0781 13.6825ZM83.113 4.81818V15H80.9951V4.81818H83.113ZM44.4943 30H40.8849V19.8182H44.5241C45.5483 19.8182 46.4299 20.022 47.169 20.4297C47.9081 20.834 48.4766 21.4157 48.8743 22.1747C49.2753 22.9337 49.4759 23.8419 49.4759 24.8991C49.4759 25.9598 49.2753 26.8712 48.8743 27.6335C48.4766 28.3958 47.9048 28.9808 47.1591 29.3885C46.4167 29.7962 45.5284 30 44.4943 30ZM43.0376 28.1555H44.4048C45.0412 28.1555 45.5765 28.0429 46.0107 27.8175C46.4482 27.5888 46.7763 27.2358 46.995 26.7585C47.2171 26.2779 47.3281 25.6581 47.3281 24.8991C47.3281 24.1468 47.2171 23.532 46.995 23.0547C46.7763 22.5774 46.4498 22.2261 46.0156 22.0007C45.5814 21.7753 45.0462 21.6626 44.4098 21.6626H43.0376V28.1555ZM54.0908 30.1491C53.3053 30.1491 52.6292 29.9901 52.0624 29.6719C51.499 29.3504 51.0648 28.8963 50.7599 28.3097C50.4549 27.7197 50.3025 27.022 50.3025 26.2166C50.3025 25.4311 50.4549 24.7417 50.7599 24.1484C51.0648 23.5552 51.494 23.0928 52.0475 22.7614C52.6043 22.4299 53.2573 22.2642 54.0063 22.2642C54.5101 22.2642 54.9791 22.3454 55.4133 22.5078C55.8508 22.6669 56.2319 22.9072 56.5567 23.2287C56.8849 23.5502 57.1401 23.9545 57.3224 24.4418C57.5047 24.9257 57.5958 25.4924 57.5958 26.142V26.7237H51.1476V25.4112H55.6022C55.6022 25.1063 55.5359 24.8362 55.4033 24.6009C55.2708 24.3655 55.0868 24.1816 54.8515 24.049C54.6195 23.9131 54.3494 23.8452 54.0411 23.8452C53.7196 23.8452 53.4346 23.9197 53.186 24.0689C52.9407 24.2147 52.7485 24.4119 52.6093 24.6605C52.4701 24.9058 52.3988 25.1792 52.3955 25.4808V26.7287C52.3955 27.1065 52.4651 27.433 52.6043 27.7081C52.7468 27.9832 52.9474 28.1953 53.2059 28.3445C53.4644 28.4936 53.771 28.5682 54.1256 28.5682C54.361 28.5682 54.5764 28.535 54.7719 28.4688C54.9675 28.4025 55.1349 28.303 55.2741 28.1705C55.4133 28.0379 55.5193 27.8755 55.5923 27.6832L57.5511 27.8125C57.4516 28.2831 57.2478 28.6941 56.9396 29.0455C56.6346 29.3935 56.2402 29.6652 55.7563 29.8608C55.2757 30.053 54.7206 30.1491 54.0908 30.1491ZM64.9116 24.5412L62.9727 24.6605C62.9395 24.4948 62.8683 24.3456 62.7589 24.2131C62.6495 24.0772 62.5053 23.9695 62.3264 23.8899C62.1507 23.8071 61.9402 23.7656 61.695 23.7656C61.3669 23.7656 61.0901 23.8352 60.8647 23.9744C60.6393 24.1103 60.5267 24.2926 60.5267 24.5213C60.5267 24.7036 60.5996 24.8577 60.7454 24.9837C60.8912 25.1096 61.1415 25.2107 61.4961 25.2869L62.8782 25.5653C63.6206 25.7178 64.1741 25.9631 64.5387 26.3011C64.9033 26.6392 65.0856 27.0833 65.0856 27.6335C65.0856 28.134 64.9381 28.5732 64.6431 28.951C64.3515 29.3288 63.9504 29.6238 63.44 29.8359C62.9329 30.0447 62.3479 30.1491 61.685 30.1491C60.6741 30.1491 59.8687 29.9387 59.2688 29.5178C58.6723 29.0935 58.3226 28.5168 58.2198 27.7876L60.3029 27.6783C60.3659 27.9865 60.5184 28.2218 60.7603 28.3842C61.0023 28.5433 61.3122 28.6229 61.69 28.6229C62.0612 28.6229 62.3595 28.5516 62.5849 28.4091C62.8136 28.2633 62.9296 28.076 62.9329 27.8473C62.9296 27.6551 62.8484 27.4976 62.6893 27.375C62.5302 27.2491 62.2849 27.1529 61.9535 27.0866L60.6311 26.8232C59.8853 26.674 59.3302 26.4155 58.9656 26.0476C58.6043 25.6797 58.4237 25.2107 58.4237 24.6406C58.4237 24.1501 58.5562 23.7275 58.8214 23.3729C59.0899 23.0182 59.466 22.7448 59.95 22.5526C60.4372 22.3603 61.0072 22.2642 61.6602 22.2642C62.6247 22.2642 63.3837 22.468 63.9372 22.8757C64.494 23.2834 64.8188 23.8385 64.9116 24.5412ZM67.9183 27.8026L67.9232 25.2621H68.2315L70.6775 22.3636H73.1086L69.8224 26.2017H69.3203L67.9183 27.8026ZM65.9992 30V19.8182H68.1171V30H65.9992ZM70.772 30L68.5248 26.674L69.9367 25.1776L73.2528 30H70.772ZM77.7895 22.3636V23.9545H73.1907V22.3636H77.7895ZM74.2348 20.5341H76.3527V27.6534C76.3527 27.849 76.3825 28.0014 76.4422 28.1108C76.5018 28.2169 76.5847 28.2914 76.6907 28.3345C76.8001 28.3776 76.9261 28.3991 77.0686 28.3991C77.168 28.3991 77.2674 28.3909 77.3669 28.3743C77.4663 28.3544 77.5425 28.3395 77.5956 28.3295L77.9287 29.9055C77.8226 29.9387 77.6735 29.9768 77.4812 30.0199C77.289 30.0663 77.0553 30.0945 76.7802 30.1044C76.2698 30.1243 75.8224 30.0563 75.4379 29.9006C75.0567 29.7448 74.7601 29.5028 74.548 29.1747C74.3359 28.8466 74.2315 28.4323 74.2348 27.9318V20.5341ZM82.1173 30.1491C81.3451 30.1491 80.6772 29.9851 80.1138 29.657C79.5536 29.3255 79.1211 28.8648 78.8162 28.2749C78.5113 27.6816 78.3588 26.9938 78.3588 26.2116C78.3588 25.4228 78.5113 24.7334 78.8162 24.1435C79.1211 23.5502 79.5536 23.0895 80.1138 22.7614C80.6772 22.4299 81.3451 22.2642 82.1173 22.2642C82.8896 22.2642 83.5558 22.4299 84.1159 22.7614C84.6794 23.0895 85.1135 23.5502 85.4185 24.1435C85.7234 24.7334 85.8759 25.4228 85.8759 26.2116C85.8759 26.9938 85.7234 27.6816 85.4185 28.2749C85.1135 28.8648 84.6794 29.3255 84.1159 29.657C83.5558 29.9851 82.8896 30.1491 82.1173 30.1491ZM82.1273 28.5085C82.4786 28.5085 82.7719 28.4091 83.0072 28.2102C83.2426 28.008 83.4199 27.733 83.5392 27.3849C83.6618 27.0369 83.7232 26.6409 83.7232 26.1967C83.7232 25.7526 83.6618 25.3565 83.5392 25.0085C83.4199 24.6605 83.2426 24.3854 83.0072 24.1832C82.7719 23.9811 82.4786 23.88 82.1273 23.88C81.7726 23.88 81.4743 23.9811 81.2324 24.1832C80.9938 24.3854 80.8131 24.6605 80.6905 25.0085C80.5712 25.3565 80.5115 25.7526 80.5115 26.1967C80.5115 26.6409 80.5712 27.0369 80.6905 27.3849C80.8131 27.733 80.9938 28.008 81.2324 28.2102C81.4743 28.4091 81.7726 28.5085 82.1273 28.5085ZM86.833 32.8636V22.3636H88.9211V23.6463H89.0155C89.1083 23.4408 89.2425 23.232 89.4182 23.0199C89.5972 22.8045 89.8292 22.6255 90.1142 22.483C90.4026 22.3371 90.7605 22.2642 91.1881 22.2642C91.7449 22.2642 92.2586 22.41 92.7293 22.7017C93.1999 22.9901 93.5761 23.4259 93.8578 24.0092C94.1396 24.5893 94.2804 25.3168 94.2804 26.1918C94.2804 27.0436 94.1429 27.7628 93.8678 28.3494C93.596 28.9328 93.2248 29.3752 92.7541 29.6768C92.2868 29.9751 91.7631 30.1243 91.1831 30.1243C90.7721 30.1243 90.4225 30.0563 90.1341 29.9205C89.8491 29.7846 89.6154 29.6139 89.4331 29.4084C89.2508 29.1996 89.1116 28.9891 89.0155 28.777H88.9509V32.8636H86.833ZM88.9061 26.1818C88.9061 26.6359 88.9691 27.032 89.0951 27.37C89.221 27.7081 89.4033 27.9716 89.6419 28.1605C89.8806 28.3461 90.1706 28.4389 90.512 28.4389C90.8567 28.4389 91.1483 28.3445 91.387 28.1555C91.6256 27.9633 91.8062 27.6982 91.9289 27.3601C92.0548 27.0187 92.1178 26.6259 92.1178 26.1818C92.1178 25.741 92.0565 25.3532 91.9338 25.0185C91.8112 24.6837 91.6306 24.4219 91.3919 24.233C91.1533 24.044 90.86 23.9496 90.512 23.9496C90.1673 23.9496 89.8756 24.0407 89.637 24.223C89.4016 24.4053 89.221 24.6638 89.0951 24.9986C88.9691 25.3333 88.9061 25.7277 88.9061 26.1818Z" fill="#434343"/>
</g>
</g>
<defs>
<linearGradient id="paint0_linear_234_4498" x1="0" y1="0" x2="32" y2="32" gradientUnits="userSpaceOnUse">
<stop stop-color="#3C83F6"/>
<stop offset="0.5" stop-color="#673AB6"/>
<stop offset="1" stop-color="#16A249"/>
</linearGradient>
</defs>
</svg>
