<svg width="22" height="22" viewBox="0 0 22 22" fill="none" xmlns="http://www.w3.org/2000/svg">
<path d="M4.5734 1.75476H0.650391V18.7024H16.6898V1.75476H12.7668H4.5734Z" fill="white"/>
<path d="M16.6895 19.3349H0.650119C0.291625 19.3349 0 19.0512 0 18.7024V1.75476C0 1.40601 0.291625 1.12231 0.650119 1.12231H16.6895C17.048 1.12231 17.3396 1.40601 17.3396 1.75476V18.7024C17.3396 19.0512 17.048 19.3349 16.6895 19.3349ZM1.30024 18.07H16.0394V2.3872H1.30024V18.07Z" fill="#333333"/>
<path d="M4.57315 0.632568H12.7665V2.29318C12.7665 3.33581 11.8972 4.18329 10.8236 4.18329H6.51422C5.44245 4.18329 4.57129 3.33762 4.57129 2.29318V0.632568H4.57315Z" fill="#3C83F6"/>
<path d="M10.8254 4.81561H6.516C5.08573 4.81561 3.9248 3.68444 3.9248 2.29306V0.632444C3.9248 0.283696 4.21643 0 4.57492 0H12.7683C13.1268 0 13.4184 0.283696 13.4184 0.632444V2.29306C13.4184 3.68444 12.2556 4.81561 10.8272 4.81561H10.8254ZM5.22319 1.26489V2.29306C5.22319 2.98513 5.80272 3.55072 6.51414 3.55072H10.8235C11.5349 3.55072 12.1145 2.98694 12.1145 2.29306V1.26489H5.22319Z" fill="#333333"/>
<path d="M6.94904 14.618H5.24387C4.88538 14.618 4.59375 14.3343 4.59375 13.9856C4.59375 13.6368 4.88538 13.3531 5.24387 13.3531H6.94904C7.30753 13.3531 7.59916 13.6368 7.59916 13.9856C7.59916 14.3343 7.30753 14.618 6.94904 14.618Z" fill="#333333"/>
<path d="M12.0961 11.5245H5.24387C4.88538 11.5245 4.59375 11.2408 4.59375 10.8921C4.59375 10.5433 4.88538 10.2596 5.24387 10.2596H12.0961C12.4546 10.2596 12.7463 10.5433 12.7463 10.8921C12.7463 11.2408 12.4546 11.5245 12.0961 11.5245Z" fill="#333333"/>
<path d="M12.0961 8.43347H5.24387C4.88538 8.43347 4.59375 8.14977 4.59375 7.80102C4.59375 7.45228 4.88538 7.16858 5.24387 7.16858H12.0961C12.4546 7.16858 12.7463 7.45228 12.7463 7.80102C12.7463 8.14977 12.4546 8.43347 12.0961 8.43347Z" fill="#333333"/>
<path d="M16.7062 21.3675C19.2709 21.3675 21.3499 19.345 21.3499 16.8501C21.3499 14.3552 19.2709 12.3326 16.7062 12.3326C14.1416 12.3326 12.0625 14.3552 12.0625 16.8501C12.0625 19.345 14.1416 21.3675 16.7062 21.3675Z" fill="#3C83F6"/>
<path d="M16.7059 21.9999C13.7878 21.9999 11.4121 19.6887 11.4121 16.85C11.4121 14.0112 13.7878 11.7001 16.7059 11.7001C19.624 11.7001 21.9998 14.0112 21.9998 16.85C21.9998 19.6887 19.624 21.9999 16.7059 21.9999ZM16.7059 12.965C14.503 12.965 12.7123 14.7069 12.7123 16.85C12.7123 18.993 14.503 20.735 16.7059 20.735C18.9089 20.735 20.6995 18.993 20.6995 16.85C20.6995 14.7069 18.9089 12.965 16.7059 12.965Z" fill="#333333"/>
<path d="M16.18 18.907H16.1763C15.9924 18.907 15.8178 18.8293 15.6952 18.6956L14.4414 17.3331C14.2018 17.0729 14.2241 16.6736 14.4916 16.4405C14.7591 16.2074 15.1696 16.2291 15.4092 16.4893L16.1838 17.3313L18.0617 15.3346C18.3032 15.0762 18.7155 15.0581 18.9811 15.2948C19.2468 15.5297 19.2653 15.9309 19.022 16.1893L16.6593 18.7028C16.5367 18.8329 16.3621 18.9088 16.18 18.9088V18.907Z" fill="#333333"/>
</svg>
