<svg width="14" height="14" viewBox="0 0 14 14" fill="none" xmlns="http://www.w3.org/2000/svg">
<path d="M4.74902 12.5001H9.25432" stroke="#222222" stroke-linecap="round" stroke-linejoin="round"/>
<path d="M9.39576 1.60556H11.7915C11.9576 1.60556 12.1166 1.63852 12.2615 1.69456C12.4064 1.7506 12.5371 1.83301 12.6466 1.9352C12.7562 2.03739 12.8445 2.15936 12.9046 2.29452C12.9647 2.42967 13 2.57801 13 2.73294V9.11814C13 9.27307 12.9647 9.42141 12.9046 9.55656C12.8445 9.69172 12.7562 9.81369 12.6466 9.91588C12.5371 10.0181 12.4064 10.1005 12.2615 10.1565C12.1166 10.2126 11.9576 10.2455 11.7915 10.2455H2.20848C2.0424 10.2455 1.88339 10.2126 1.73852 10.1565C1.59364 10.1005 1.4629 10.0181 1.35336 9.91588C1.24382 9.81369 1.15548 9.69172 1.09541 9.55656C1.03534 9.42141 1 9.27307 1 9.11814V2.73294C1 2.57801 1.03534 2.42967 1.09541 2.29452C1.15548 2.15936 1.24382 2.03739 1.35336 1.9352C1.4629 1.83301 1.59364 1.7506 1.73852 1.69456C1.88339 1.63852 2.0424 1.60556 2.20848 1.60556H4.60424" stroke="#222222" stroke-linecap="round" stroke-linejoin="round"/>
<path d="M5.82715 5.68301L7.00029 6.77742L8.17344 5.68301" stroke="#222222" stroke-linecap="round" stroke-linejoin="round"/>
<path d="M7 6.69518V1.5" stroke="#222222" stroke-linecap="round" stroke-linejoin="round"/>
</svg>
