<svg width="12" height="12" viewBox="0 0 12 12" fill="none" xmlns="http://www.w3.org/2000/svg">
<g clip-path="url(#clip0_282_4332)">
<path d="M2.96148 6.75121V2.47943H2.05729C0.921123 2.47943 0 3.43535 0 4.61444C0 5.79353 0.921123 6.75121 2.05898 6.75121H2.96317H2.96148Z" fill="white"/>
<path d="M3.9165 7.05872L9.18587 9.22888V0L3.9165 2.17191V7.05872Z" fill="white"/>
<path d="M10.0918 2.63582V6.59482C11.145 6.59482 12.0001 5.70918 12.0001 4.61444C12.0001 3.5197 11.1467 2.63406 10.0918 2.63406V2.63582Z" fill="white"/>
<path d="M2.0591 7.68955C2.04217 7.68955 2.02523 7.68779 2.0083 7.68604V10.5415C2.0083 11.3481 2.63819 12 3.41369 12C4.1892 12 4.81908 11.3463 4.81908 10.5415V8.45218L2.96837 7.68955H2.0574H2.0591Z" fill="white"/>
</g>
<defs>
<clipPath id="clip0_282_4332">
<rect width="12" height="12" fill="white"/>
</clipPath>
</defs>
</svg>
