<svg width="20" height="20" viewBox="0 0 20 20" fill="none" xmlns="http://www.w3.org/2000/svg">
<path d="M18.3334 10H1.66675" stroke="#16A249" stroke-width="1.5" stroke-linecap="round" stroke-linejoin="round"/>
<path d="M4.54175 4.25834L1.66675 10V15C1.66675 15.442 1.84234 15.866 2.1549 16.1785C2.46746 16.4911 2.89139 16.6667 3.33341 16.6667H16.6667C17.1088 16.6667 17.5327 16.4911 17.8453 16.1785C18.1578 15.866 18.3334 15.442 18.3334 15V10L15.4584 4.25834C15.3204 3.98067 15.1077 3.74699 14.8442 3.58358C14.5807 3.42017 14.2768 3.33351 13.9667 3.33334H6.03341C5.72334 3.33351 5.41947 3.42017 5.15595 3.58358C4.89244 3.74699 4.67973 3.98067 4.54175 4.25834Z" stroke="#16A249" stroke-width="1.5" stroke-linecap="round" stroke-linejoin="round"/>
<path d="M5 13.3333H5.00833" stroke="#16A249" stroke-width="1.5" stroke-linecap="round" stroke-linejoin="round"/>
<path d="M8.33325 13.3333H8.34159" stroke="#16A249" stroke-width="1.5" stroke-linecap="round" stroke-linejoin="round"/>
</svg>
