<svg width="22" height="22" viewBox="0 0 22 22" fill="none" xmlns="http://www.w3.org/2000/svg">
<path d="M17.969 2.75317H4.02998C2.21688 2.75317 0.74707 4.23398 0.74707 6.06064V14.9394C0.74707 16.766 2.21688 18.2468 4.02998 18.2468H17.969C19.7821 18.2468 21.2519 16.766 21.2519 14.9394V6.06064C21.2519 4.23398 19.7821 2.75317 17.969 2.75317Z" fill="white"/>
<path d="M17.9695 19H4.03049C1.80699 19 0 17.1773 0 14.9394V6.06063C0 3.82266 1.80913 2 4.03049 2H17.9695C20.193 2 22 3.82266 22 6.06063V14.9394C22 17.1795 20.1909 19 17.9695 19ZM4.03049 3.50633C2.63146 3.50633 1.49515 4.65329 1.49515 6.06063V14.9394C1.49515 16.3489 2.63359 17.4937 4.03049 17.4937H17.9695C19.3685 17.4937 20.5049 16.3467 20.5049 14.9394V6.06063C20.5049 4.65114 19.3664 3.50633 17.9695 3.50633H4.03049Z" fill="#333333"/>
<path d="M9.19895 8.80262C9.50677 7.59389 8.78372 6.36261 7.58396 6.05248C6.3842 5.74236 5.16206 6.47082 4.85424 7.67956C4.54641 8.88829 5.26947 10.1196 6.46923 10.4297C7.66899 10.7398 8.89113 10.0114 9.19895 8.80262Z" fill="#3C83F6"/>
<path d="M7.0274 11.2531C5.37847 11.2531 4.03711 9.90171 4.03711 8.24044C4.03711 6.57918 5.37847 5.22778 7.0274 5.22778C8.67633 5.22778 10.0177 6.57918 10.0177 8.24044C10.0177 9.90171 8.67633 11.2531 7.0274 11.2531ZM7.0274 6.73411C6.20294 6.73411 5.53226 7.40981 5.53226 8.24044C5.53226 9.07107 6.20294 9.74677 7.0274 9.74677C7.85187 9.74677 8.52255 9.07107 8.52255 8.24044C8.52255 7.40981 7.85187 6.73411 7.0274 6.73411Z" fill="#333333"/>
<path d="M7.00385 10.5154H7.04871C8.65492 10.5154 9.95997 11.8302 9.95997 13.4484V13.7411C9.95997 14.4469 9.39181 15.0172 8.69337 15.0172H5.36133C4.66075 15.0172 4.09473 14.4447 4.09473 13.7411V13.4484C4.09473 11.8302 5.39977 10.5154 7.00599 10.5154H7.00385Z" fill="#3C83F6"/>
<path d="M8.69289 15.7703H5.36085C4.25017 15.7703 3.34668 14.8601 3.34668 13.7411V13.4484C3.34668 11.4149 4.98707 9.76221 7.00551 9.76221H7.05037C9.06881 9.76221 10.7092 11.4149 10.7092 13.4484V13.7411C10.7092 14.8601 9.80571 15.7703 8.69503 15.7703H8.69289ZM7.00338 11.2685C5.81153 11.2685 4.83969 12.2455 4.83969 13.4484V13.7411C4.83969 14.0294 5.0725 14.264 5.35872 14.264H8.69076C8.97697 14.264 9.20979 14.0294 9.20979 13.7411V13.4484C9.20979 12.2455 8.24008 11.2685 7.0461 11.2685H7.00124H7.00338Z" fill="#333333"/>
<path d="M14.304 8.51829H13.1655C12.7533 8.51829 12.418 8.18044 12.418 7.76513C12.418 7.34981 12.7533 7.01196 13.1655 7.01196H14.304C14.7162 7.01196 15.0516 7.34981 15.0516 7.76513C15.0516 8.18044 14.7162 8.51829 14.304 8.51829Z" fill="#333333"/>
<path d="M17.7454 8.51829H16.6069C16.1947 8.51829 15.8594 8.18044 15.8594 7.76513C15.8594 7.34981 16.1947 7.01196 16.6069 7.01196H17.7454C18.1576 7.01196 18.493 7.34981 18.493 7.76513C18.493 8.18044 18.1576 8.51829 17.7454 8.51829Z" fill="#333333"/>
<path d="M17.745 11.2532H13.1655C12.7533 11.2532 12.418 10.9153 12.418 10.5C12.418 10.0847 12.7533 9.74683 13.1655 9.74683H17.745C18.1572 9.74683 18.4925 10.0847 18.4925 10.5C18.4925 10.9153 18.1572 11.2532 17.745 11.2532Z" fill="#333333"/>
<path d="M17.745 13.9883H13.1655C12.7533 13.9883 12.418 13.6504 12.418 13.2351C12.418 12.8198 12.7533 12.4819 13.1655 12.4819H17.745C18.1572 12.4819 18.4925 12.8198 18.4925 13.2351C18.4925 13.6504 18.1572 13.9883 17.745 13.9883Z" fill="#333333"/>
</svg>
