<svg width="32" height="32" viewBox="0 0 32 32" fill="none" xmlns="http://www.w3.org/2000/svg">
<path d="M28.2573 18.6945C29.7722 16.6258 29.3057 13.7397 27.2153 12.2482C25.125 10.7568 22.2023 11.2248 20.6874 13.2936C19.1724 15.3624 19.6389 18.2485 21.7293 19.7399C23.8197 21.2313 26.7424 20.7633 28.2573 18.6945Z" fill="#4D3FD1"/>
<path d="M3.06664 10.0411H8.31816V21.9575H3.06664C1.92701 21.9575 1 21.0439 1 19.9175V12.0795C1 10.9546 1.92548 10.0396 3.06664 10.0396V10.0411Z" fill="#E4DEFF"/>
<path d="M6.01393 13.0488H3.42871V15.6006H6.01393V13.0488Z" fill="white"/>
<path d="M8.31738 21.9575L24.4681 30.0145V1.98407L8.31738 10.0411V21.9575Z" fill="#7C68F2"/>
<path d="M22.4391 32C21.3178 32 20.4092 31.1031 20.4092 29.9963V2.00367C20.4092 0.896894 21.3178 0 22.4391 0C23.5604 0 24.469 0.896894 24.469 2.00367V29.9963C24.469 31.1031 23.5604 32 22.4391 32Z" fill="#E4DEFF"/>
</svg>
