<svg width="14" height="14" viewBox="0 0 14 14" fill="none" xmlns="http://www.w3.org/2000/svg">
<path d="M7.00122 6.39969C6.67049 6.39969 6.40186 6.13106 6.40186 5.80033V1.59937C6.40186 1.26728 6.67049 1 7.00122 1C7.33195 1 7.60058 1.26863 7.60058 1.59937V5.79898C7.60058 6.13106 7.33195 6.39834 7.00122 6.39834V6.39969Z" fill="#222222"/>
<path d="M7.00231 12.9995C6.94426 12.9995 6.88621 12.9995 6.82682 12.9968C3.56946 12.905 0.956014 10.1768 1.00056 6.91671C1.02486 5.25225 1.75247 3.65529 2.99979 2.5362C3.24683 2.31347 3.62616 2.33641 3.84754 2.5821C4.06893 2.82914 4.04868 3.20846 3.80165 3.42985C2.8027 4.3262 2.21954 5.60188 2.20199 6.9329C2.16689 9.49776 4.30112 11.7251 6.86191 11.798C8.17134 11.8466 9.40921 11.3539 10.3461 10.4427C11.2843 9.53151 11.7999 8.30848 11.7999 7.0004C11.7999 5.69232 11.2168 4.3424 10.1989 3.42985C9.95188 3.20846 9.93163 2.82914 10.153 2.5821C10.3744 2.33641 10.7537 2.31482 11.0008 2.5362C12.271 3.67554 13 5.3022 13 6.99905C13 8.6959 12.3547 10.1619 11.1817 11.3013C10.0518 12.4001 8.57361 12.9995 7.00231 12.9995Z" fill="#222222"/>
</svg>
