<svg width="30" height="30" viewBox="0 0 30 30" fill="none" xmlns="http://www.w3.org/2000/svg">
<path d="M12.4628 23.1969V28.0165C12.4628 28.5192 12.0539 28.9285 11.5508 28.9285H1.912C1.40929 28.9285 1 28.5196 1 28.0165V18.3773C1 17.8746 1.4089 17.4653 1.912 17.4653H6.73158C6.89968 17.4653 7.03571 17.6013 7.03571 17.7694C7.03571 17.9375 6.89968 18.0736 6.73158 18.0736H1.912C1.7443 18.0736 1.60787 18.21 1.60787 18.3777V28.0168C1.60787 28.1846 1.7443 28.321 1.912 28.321H11.5512C11.7189 28.321 11.8553 28.1846 11.8553 28.0168V23.1973C11.8553 23.0292 11.9913 22.8931 12.1594 22.8931C12.3275 22.8931 12.4636 23.0292 12.4636 23.1973L12.4628 23.1969Z" fill="white" stroke="white" stroke-width="2"/>
<path d="M29.0001 1.912V21.7982C29.0001 22.3009 28.5912 22.7102 28.0881 22.7102H18.1448C17.9768 22.7102 17.8407 22.5741 17.8407 22.4061C17.8407 22.238 17.9768 22.1019 18.1448 22.1019H28.0881C28.2558 22.1019 28.3923 21.9655 28.3923 21.7978V1.912C28.3923 1.7443 28.2558 1.60787 28.0881 1.60787H8.20194C8.03424 1.60787 7.89781 1.7443 7.89781 1.912V11.8553C7.89781 12.0234 7.76138 12.1594 7.59368 12.1594C7.42598 12.1594 7.28955 12.0234 7.28955 11.8553V1.912C7.28955 1.40929 7.69845 1 8.20155 1H28.0877C28.5905 1 28.9998 1.4089 28.9998 1.912H29.0001Z" fill="white" stroke="white" stroke-width="2"/>
<path d="M24 6.25741V9.81384C24 9.95591 23.8831 10.0709 23.7387 10.0709C23.5943 10.0709 23.4775 9.95591 23.4775 9.81384V6.88484L5.44731 24.9234C5.39627 24.9743 5.32877 25 5.26094 25C5.1931 25 5.12896 24.9756 5.07825 24.9264C4.97516 24.8269 4.97382 24.6643 5.0749 24.5629L23.1074 6.52305L19.4155 6.57294H19.4118C19.2694 6.57294 19.1529 6.46028 19.1505 6.3192C19.1485 6.17746 19.264 6.06082 19.4084 6.05884L23.7364 6.00003H23.7404C23.8841 6.00069 24 6.11567 24 6.25708V6.25741Z" fill="white" stroke="white" stroke-width="1.3"/>
</svg>
