<svg width="20" height="20" viewBox="0 0 20 20" fill="none" xmlns="http://www.w3.org/2000/svg">
<path d="M5 15.8333V13.3333" stroke="#673AB6" stroke-width="1.5" stroke-linecap="round" stroke-linejoin="round"/>
<path d="M8.33325 15.8333V13.3333" stroke="#673AB6" stroke-width="1.5" stroke-linecap="round" stroke-linejoin="round"/>
<path d="M11.6667 15.8333V13.3333" stroke="#673AB6" stroke-width="1.5" stroke-linecap="round" stroke-linejoin="round"/>
<path d="M15 15.8333V13.3333" stroke="#673AB6" stroke-width="1.5" stroke-linecap="round" stroke-linejoin="round"/>
<path d="M6.66675 9.16667V7.5" stroke="#673AB6" stroke-width="1.5" stroke-linecap="round" stroke-linejoin="round"/>
<path d="M13.3333 9.16667V7.5" stroke="#673AB6" stroke-width="1.5" stroke-linecap="round" stroke-linejoin="round"/>
<path d="M10 9.16667V7.5" stroke="#673AB6" stroke-width="1.5" stroke-linecap="round" stroke-linejoin="round"/>
<path d="M1.66675 12.5H18.3334" stroke="#673AB6" stroke-width="1.5" stroke-linecap="round" stroke-linejoin="round"/>
<path d="M1.66675 5.83332C1.66675 5.3913 1.84234 4.96737 2.1549 4.65481C2.46746 4.34225 2.89139 4.16666 3.33341 4.16666H16.6667C17.1088 4.16666 17.5327 4.34225 17.8453 4.65481C18.1578 4.96737 18.3334 5.3913 18.3334 5.83332V6.74999C17.9882 6.85167 17.6852 7.06234 17.4697 7.35052C17.2541 7.63869 17.1377 7.98888 17.1377 8.34874C17.1377 8.7086 17.2541 9.05879 17.4697 9.34696C17.6852 9.63513 17.9882 9.84581 18.3334 9.94749V14.1667C18.3334 14.6087 18.1578 15.0326 17.8453 15.3452C17.5327 15.6577 17.1088 15.8333 16.6667 15.8333H3.33341C2.89139 15.8333 2.46746 15.6577 2.1549 15.3452C1.84234 15.0326 1.66675 14.6087 1.66675 14.1667V9.91666C2.01194 9.81498 2.31495 9.6043 2.53048 9.31613C2.74601 9.02796 2.86248 8.67776 2.86248 8.31791C2.86248 7.95805 2.74601 7.60786 2.53048 7.31968C2.31495 7.03151 2.01194 6.82084 1.66675 6.71916V5.83332Z" stroke="#673AB6" stroke-width="1.5" stroke-linecap="round" stroke-linejoin="round"/>
</svg>
